<?xml version="1.0" encoding="utf-8"?>
<!-- Generated by IcoMoon.io -->


<svg id="icon-AC2" version="1.1" xmlns="http://www.w3.org/2000/svg" xmlns:xlink="http://www.w3.org/1999/xlink"  width="752" height="80" viewBox="0 0 752 80"><svg width="20" height="16" viewBox="0 0 20 16" fill="none" xmlns="http://www.w3.org/2000/svg">
  <mask id="path-1-inside-1_18_11583" fill="white">
    <path d="M9.69 0C8.7518 0.000205607 7.84263 0.320331 7.11706 0.905952C6.39148 1.49157 5.89429 2.30654 5.71 3.21231L5.6375 3.57169C5.61823 3.65208 5.61559 3.73546 5.62974 3.81688C5.64389 3.89829 5.67454 3.97606 5.71986 4.04556C5.76519 4.11507 5.82426 4.17487 5.89355 4.22142C5.96285 4.26797 6.04095 4.30031 6.12321 4.31651C6.20547 4.3327 6.29019 4.33243 6.37234 4.31571C6.45449 4.29898 6.53238 4.26614 6.60137 4.21915C6.67035 4.17216 6.72903 4.11198 6.77389 4.04219C6.81875 3.97239 6.84889 3.89442 6.8625 3.81292L6.93625 3.45477C7.0748 2.7832 7.46155 2.18615 8.02159 1.77926C8.58162 1.37237 9.2751 1.1846 9.96769 1.25232C10.6603 1.32004 11.3027 1.63843 11.7705 2.14581C12.2384 2.6532 12.4983 3.31348 12.5 3.99877C12.5 4.73333 12.2037 5.43782 11.6763 5.95735C11.1489 6.47687 10.4335 6.7689 9.6875 6.76923H0.625C0.45924 6.76923 0.300269 6.83407 0.183058 6.94947C0.0658481 7.06488 0 7.22141 0 7.38462C0 7.54783 0.0658481 7.70435 0.183058 7.81976C0.300269 7.93517 0.45924 8 0.625 8H9.6875C10.7475 7.97443 11.7554 7.54194 12.496 6.79485C13.2367 6.04775 13.6514 5.04521 13.6517 4.0012C13.652 2.95719 13.2379 1.9544 12.4978 1.20686C11.7576 0.459308 10.75 0.0262118 9.69 0ZM16.875 5.53846C16.0462 5.53846 15.2513 5.86264 14.6653 6.43967C14.0792 7.01671 13.75 7.79933 13.75 8.61538C13.75 8.7786 13.8158 8.93512 13.9331 9.05053C14.0503 9.16594 14.2092 9.23077 14.375 9.23077C14.5408 9.23077 14.6997 9.16594 14.8169 9.05053C14.9342 8.93512 15 8.7786 15 8.61538C15 8.25025 15.11 7.89332 15.316 7.58972C15.522 7.28612 15.8149 7.04949 16.1575 6.90976C16.5001 6.77003 16.8771 6.73347 17.2408 6.8047C17.6045 6.87594 17.9386 7.05177 18.2008 7.30996C18.463 7.56815 18.6416 7.8971 18.714 8.25522C18.7863 8.61334 18.7492 8.98454 18.6073 9.32188C18.4654 9.65922 18.225 9.94755 17.9167 10.1504C17.6084 10.3533 17.2458 10.4615 16.875 10.4615H0.625C0.45924 10.4615 0.300269 10.5264 0.183058 10.6418C0.0658481 10.7572 0 10.9137 0 11.0769C0 11.2401 0.0658481 11.3967 0.183058 11.5121C0.300269 11.6275 0.45924 11.6923 0.625 11.6923H12.8125C13.2269 11.6931 13.624 11.856 13.9164 12.1451C14.2089 12.4342 14.3727 12.8258 14.3719 13.2338C14.371 13.6419 14.2056 14.0329 13.912 14.3208C13.6184 14.6087 13.2207 14.77 12.8062 14.7692C12.433 14.7695 12.0716 14.6396 11.7863 14.4026C11.501 14.1656 11.3101 13.8368 11.2475 13.4745L11.2413 13.4375C11.23 13.3559 11.2023 13.2773 11.1596 13.2065C11.117 13.1356 11.0603 13.0739 10.993 13.025C10.9257 12.9761 10.849 12.941 10.7677 12.9218C10.6863 12.9025 10.6019 12.8996 10.5194 12.9131C10.4368 12.9266 10.3579 12.9563 10.2872 13.0004C10.2166 13.0445 10.1556 13.1022 10.108 13.1699C10.0604 13.2376 10.0271 13.3141 10.01 13.3947C9.99298 13.4754 9.99254 13.5586 10.0087 13.6394L10.015 13.6763C10.1261 14.326 10.4675 14.916 10.9785 15.3414C11.4895 15.7668 12.1371 16.0001 12.8062 16C13.5528 16.0003 14.2691 15.7089 14.7976 15.1896C15.3261 14.6704 15.6237 13.9659 15.625 13.2308C15.625 12.6609 15.45 12.1317 15.1513 11.6923H16.875C17.7038 11.6923 18.4987 11.3681 19.0847 10.7911C19.6708 10.2141 20 9.43144 20 8.61538C20 7.79933 19.6708 7.01671 19.0847 6.43967C18.4987 5.86264 17.7038 5.53846 16.875 5.53846Z" />
  </mask>
  <path d="M9.69 0C8.7518 0.000205607 7.84263 0.320331 7.11706 0.905952C6.39148 1.49157 5.89429 2.30654 5.71 3.21231L5.6375 3.57169C5.61823 3.65208 5.61559 3.73546 5.62974 3.81688C5.64389 3.89829 5.67454 3.97606 5.71986 4.04556C5.76519 4.11507 5.82426 4.17487 5.89355 4.22142C5.96285 4.26797 6.04095 4.30031 6.12321 4.31651C6.20547 4.3327 6.29019 4.33243 6.37234 4.31571C6.45449 4.29898 6.53238 4.26614 6.60137 4.21915C6.67035 4.17216 6.72903 4.11198 6.77389 4.04219C6.81875 3.97239 6.84889 3.89442 6.8625 3.81292L6.93625 3.45477C7.0748 2.7832 7.46155 2.18615 8.02159 1.77926C8.58162 1.37237 9.2751 1.1846 9.96769 1.25232C10.6603 1.32004 11.3027 1.63843 11.7705 2.14581C12.2384 2.6532 12.4983 3.31348 12.5 3.99877C12.5 4.73333 12.2037 5.43782 11.6763 5.95735C11.1489 6.47687 10.4335 6.7689 9.6875 6.76923H0.625C0.45924 6.76923 0.300269 6.83407 0.183058 6.94947C0.0658481 7.06488 0 7.22141 0 7.38462C0 7.54783 0.0658481 7.70435 0.183058 7.81976C0.300269 7.93517 0.45924 8 0.625 8H9.6875C10.7475 7.97443 11.7554 7.54194 12.496 6.79485C13.2367 6.04775 13.6514 5.04521 13.6517 4.0012C13.652 2.95719 13.2379 1.9544 12.4978 1.20686C11.7576 0.459308 10.75 0.0262118 9.69 0ZM16.875 5.53846C16.0462 5.53846 15.2513 5.86264 14.6653 6.43967C14.0792 7.01671 13.75 7.79933 13.75 8.61538C13.75 8.7786 13.8158 8.93512 13.9331 9.05053C14.0503 9.16594 14.2092 9.23077 14.375 9.23077C14.5408 9.23077 14.6997 9.16594 14.8169 9.05053C14.9342 8.93512 15 8.7786 15 8.61538C15 8.25025 15.11 7.89332 15.316 7.58972C15.522 7.28612 15.8149 7.04949 16.1575 6.90976C16.5001 6.77003 16.8771 6.73347 17.2408 6.8047C17.6045 6.87594 17.9386 7.05177 18.2008 7.30996C18.463 7.56815 18.6416 7.8971 18.714 8.25522C18.7863 8.61334 18.7492 8.98454 18.6073 9.32188C18.4654 9.65922 18.225 9.94755 17.9167 10.1504C17.6084 10.3533 17.2458 10.4615 16.875 10.4615H0.625C0.45924 10.4615 0.300269 10.5264 0.183058 10.6418C0.0658481 10.7572 0 10.9137 0 11.0769C0 11.2401 0.0658481 11.3967 0.183058 11.5121C0.300269 11.6275 0.45924 11.6923 0.625 11.6923H12.8125C13.2269 11.6931 13.624 11.856 13.9164 12.1451C14.2089 12.4342 14.3727 12.8258 14.3719 13.2338C14.371 13.6419 14.2056 14.0329 13.912 14.3208C13.6184 14.6087 13.2207 14.77 12.8062 14.7692C12.433 14.7695 12.0716 14.6396 11.7863 14.4026C11.501 14.1656 11.3101 13.8368 11.2475 13.4745L11.2413 13.4375C11.23 13.3559 11.2023 13.2773 11.1596 13.2065C11.117 13.1356 11.0603 13.0739 10.993 13.025C10.9257 12.9761 10.849 12.941 10.7677 12.9218C10.6863 12.9025 10.6019 12.8996 10.5194 12.9131C10.4368 12.9266 10.3579 12.9563 10.2872 13.0004C10.2166 13.0445 10.1556 13.1022 10.108 13.1699C10.0604 13.2376 10.0271 13.3141 10.01 13.3947C9.99298 13.4754 9.99254 13.5586 10.0087 13.6394L10.015 13.6763C10.1261 14.326 10.4675 14.916 10.9785 15.3414C11.4895 15.7668 12.1371 16.0001 12.8062 16C13.5528 16.0003 14.2691 15.7089 14.7976 15.1896C15.3261 14.6704 15.6237 13.9659 15.625 13.2308C15.625 12.6609 15.45 12.1317 15.1513 11.6923H16.875C17.7038 11.6923 18.4987 11.3681 19.0847 10.7911C19.6708 10.2141 20 9.43144 20 8.61538C20 7.79933 19.6708 7.01671 19.0847 6.43967C18.4987 5.86264 17.7038 5.53846 16.875 5.53846Z" fill="#101828" />
  <path d="M9.69 0L9.8136 -4.99847L9.75126 -5.00001L9.6889 -5L9.69 0ZM5.71 3.21231L0.810378 2.21542L0.808736 2.22356L5.71 3.21231ZM5.6375 3.57169L10.4997 4.73738L10.5208 4.64926L10.5388 4.56044L5.6375 3.57169ZM6.8625 3.81292L1.96525 2.80449L1.94629 2.89657L1.9308 2.98929L6.8625 3.81292ZM6.93625 3.45477L2.03938 2.4445L2.039 2.44634L6.93625 3.45477ZM12.5 3.99877L17.5 3.99877L17.5 3.98632L12.5 3.99877ZM9.6875 6.76923L9.6875 11.7692L9.68969 11.7692L9.6875 6.76923ZM0 7.38462L-5 7.38462L0 7.38462ZM9.6875 8V13H9.7478L9.80808 12.9985L9.6875 8ZM15 8.61538L20 8.61538L15 8.61538ZM0 11.0769L-5 11.0769L0 11.0769ZM12.8125 11.6923L12.8223 6.69231H12.8125V11.6923ZM12.8062 14.7692L12.8161 9.76922L12.8027 9.76923L12.8062 14.7692ZM11.2475 13.4745L6.31763 14.309L6.31906 14.3174L6.32051 14.3258L11.2475 13.4745ZM11.2413 13.4375L6.28794 14.1192L6.29848 14.1958L6.31138 14.272L11.2413 13.4375ZM10.0087 13.6394L14.9386 12.8049L14.926 12.7303L14.9111 12.6562L10.0087 13.6394ZM10.015 13.6763L5.08512 14.5108L5.08658 14.5193L10.015 13.6763ZM12.8062 16L12.8084 11L12.8053 11L12.8062 16ZM15.625 13.2308L20.625 13.2398V13.2308H15.625ZM15.1513 11.6923V6.69231H5.70532L11.0165 14.5037L15.1513 11.6923ZM9.6889 -5C7.61603 -4.99955 5.59727 -4.29281 3.97674 -2.98486L10.2574 4.79676C10.088 4.93347 9.88758 4.99996 9.6911 5L9.6889 -5ZM3.97674 -2.98486C2.35462 -1.67562 1.22882 0.158856 0.810385 2.21542L10.6096 4.20919C10.5598 4.45423 10.4284 4.65877 10.2574 4.79676L3.97674 -2.98486ZM0.808736 2.22356L0.736237 2.58295L10.5388 4.56044L10.6113 4.20105L0.808736 2.22356ZM0.775281 2.40601C0.59723 3.14868 0.572719 3.9201 0.703591 4.67308L10.5559 2.96068C10.6585 3.55083 10.6392 4.15548 10.4997 4.73738L0.775281 2.40601ZM0.703591 4.67308C0.834446 5.42595 1.11728 6.14125 1.53171 6.77675L9.90801 1.31438C10.2318 1.81088 10.4533 2.37063 10.5559 2.96068L0.703591 4.67308ZM1.53171 6.77675C1.94601 7.41206 2.48245 7.95341 3.10551 8.37194L8.68159 0.0709C9.16606 0.396336 9.58436 0.81807 9.90801 1.31438L1.53171 6.77675ZM3.10551 8.37194C3.7284 8.79036 4.42633 9.07838 5.15715 9.22229L7.08927 -0.589279C7.65557 -0.477761 8.19729 -0.254418 8.68159 0.0709L3.10551 8.37194ZM5.15715 9.22229C5.88787 9.36619 6.64 9.36379 7.36988 9.21519L5.37481 -0.583775C5.94039 -0.698927 6.52306 -0.700779 7.08927 -0.589279L5.15715 9.22229ZM7.36988 9.21519C8.09984 9.06657 8.79598 8.77403 9.41622 8.35153L3.78651 0.0867706C4.26878 -0.241739 4.80915 -0.468606 5.37481 -0.583775L7.36988 9.21519ZM9.41622 8.35153C10.0367 7.92891 10.5696 7.38399 10.9799 6.74587L2.56793 1.3385C2.8884 0.839959 3.30405 0.415409 3.78651 0.0867706L9.41622 8.35153ZM10.9799 6.74587C11.3902 6.10753 11.6683 5.39029 11.7942 4.63655L1.9308 2.98929C2.02946 2.39856 2.24732 1.83726 2.56793 1.3385L10.9799 6.74587ZM11.7598 4.82135L11.8335 4.4632L2.039 2.44634L1.96525 2.80449L11.7598 4.82135ZM11.8331 4.46504C11.7173 5.0265 11.3978 5.50664 10.9605 5.82436L5.08268 -2.26584C3.5253 -1.13435 2.43232 0.539891 2.03938 2.4445L11.8331 4.46504ZM10.9605 5.82436C10.5253 6.14056 9.99872 6.2792 9.48113 6.22859L10.4542 -3.72395C8.55147 -3.90999 6.63797 -3.39581 5.08268 -2.26584L10.9605 5.82436ZM9.48113 6.22859C8.96306 6.17794 8.46663 5.93864 8.0946 5.53514L15.4465 -1.24351C14.1388 -2.66178 12.3575 -3.53785 10.4542 -3.72395L9.48113 6.22859ZM8.0946 5.53514C7.72063 5.12956 7.50145 4.58743 7.50002 4.01122L17.5 3.98632C17.4951 2.03954 16.7561 0.176847 15.4465 -1.24351L8.0946 5.53514ZM7.5 3.99877C7.5 3.38241 7.74933 2.80721 8.1675 2.39529L15.1851 9.5194C16.6581 8.06843 17.5 6.08425 17.5 3.99877L7.5 3.99877ZM8.1675 2.39529C8.58305 1.98596 9.13044 1.76947 9.68531 1.76923L9.68969 11.7692C11.7366 11.7683 13.7148 10.9678 15.1851 9.5194L8.1675 2.39529ZM9.6875 1.76923H0.625V11.7692H9.6875V1.76923ZM0.625 1.76923C-0.842035 1.76923 -2.26432 2.34231 -3.32496 3.38664L3.69108 10.5123C2.86486 11.3258 1.76051 11.7692 0.625 11.7692V1.76923ZM-3.32496 3.38664C-4.38823 4.43355 -5 5.87009 -5 7.38462L5 7.38462C5 8.57272 4.51993 9.69621 3.69108 10.5123L-3.32496 3.38664ZM-5 7.38462C-5 8.89914 -4.38823 10.3357 -3.32496 11.3826L3.69108 4.25692C4.51993 5.07302 5 6.19651 5 7.38462L-5 7.38462ZM-3.32496 11.3826C-2.26432 12.4269 -0.842035 13 0.625 13V3C1.76051 3 2.86486 3.44341 3.69108 4.25692L-3.32496 11.3826ZM0.625 13H9.6875V3H0.625V13ZM9.80808 12.9985C12.1481 12.9421 14.3887 11.9876 16.0469 10.315L8.94516 3.2747C9.12203 3.09629 9.34686 3.00676 9.56692 3.00145L9.80808 12.9985ZM16.0469 10.315C17.7075 8.63992 18.651 6.37608 18.6517 4.00276L8.65172 3.99964C8.65181 3.71434 8.76585 3.45557 8.94516 3.2747L16.0469 10.315ZM18.6517 4.00276C18.6525 1.62945 17.7104 -0.634998 16.0508 -2.31111L8.94474 4.72482C8.76552 4.5438 8.65163 4.28494 8.65172 3.99964L18.6517 4.00276ZM16.0508 -2.31111C14.3937 -3.98475 12.1536 -4.94061 9.8136 -4.99847L9.5664 4.99847C9.34633 4.99303 9.12153 4.90336 8.94474 4.72482L16.0508 -2.31111ZM16.875 0.538462C14.7449 0.538462 12.6867 1.37089 11.1573 2.87684L18.1733 10.0025C17.8159 10.3544 17.3475 10.5385 16.875 10.5385V0.538462ZM11.1573 2.87684C9.62516 4.38537 8.75 6.44802 8.75 8.61538H18.75C18.75 9.15065 18.5333 9.64804 18.1733 10.0025L11.1573 2.87684ZM8.75 8.61538C8.75 10.1299 9.36176 11.5664 10.425 12.6134L17.4411 5.48769C18.2699 6.3038 18.75 7.42729 18.75 8.61538H8.75ZM10.425 12.6134C11.4857 13.6577 12.908 14.2308 14.375 14.2308V4.23077C15.5105 4.23077 16.6149 4.67418 17.4411 5.48769L10.425 12.6134ZM14.375 14.2308C15.842 14.2308 17.2643 13.6577 18.325 12.6134L11.3089 5.48769C12.1351 4.67418 13.2395 4.23077 14.375 4.23077V14.2308ZM18.325 12.6134C19.3882 11.5664 20 10.1299 20 8.61538H10C10 7.42729 10.4801 6.3038 11.3089 5.48769L18.325 12.6134ZM20 8.61538C20 9.25657 19.8065 9.87684 19.4533 10.3974L11.1787 4.78208C10.4134 5.90979 10 7.24393 10 8.61538L20 8.61538ZM19.4533 10.3974C19.1007 10.9169 18.6078 11.3103 18.0457 11.5395L14.2693 2.28C13.0219 2.78871 11.9433 3.65531 11.1787 4.78208L19.4533 10.3974ZM18.0457 11.5395C17.4842 11.7685 16.8708 11.8272 16.2798 11.7115L18.2018 1.89793C16.8833 1.6397 15.5159 1.77157 14.2693 2.28L18.0457 11.5395ZM16.2798 11.7115C15.6884 11.5957 15.1347 11.3079 14.6928 10.8728L21.7088 3.74712C20.7425 2.79565 19.5206 2.15622 18.2018 1.89793L16.2798 11.7115ZM14.6928 10.8728C14.2501 10.4369 13.9396 9.87202 13.813 9.24532L23.615 7.26512C23.3437 5.92218 22.676 4.69941 21.7088 3.74712L14.6928 10.8728ZM13.813 9.24532C13.6863 8.61811 13.752 7.96887 13.9985 7.38303L23.2161 11.2607C23.7463 10.0002 23.8864 8.60856 23.615 7.26512L13.813 9.24532ZM13.9985 7.38303C14.2446 6.79803 14.656 6.31058 15.1686 5.97333L20.6648 14.3275C21.7941 13.5845 22.6861 12.5204 23.2161 11.2607L13.9985 7.38303ZM15.1686 5.97333C15.6804 5.63664 16.274 5.46154 16.875 5.46154V15.4615C18.2176 15.4615 19.5363 15.0699 20.6648 14.3275L15.1686 5.97333ZM16.875 5.46154H0.625V15.4615H16.875V5.46154ZM0.625 5.46154C-0.842035 5.46154 -2.26432 6.03462 -3.32496 7.07895L3.69108 14.2046C2.86486 15.0181 1.76051 15.4615 0.625 15.4615V5.46154ZM-3.32496 7.07895C-4.38823 8.12586 -5 9.5624 -5 11.0769L5 11.0769C5 12.265 4.51993 13.3885 3.69108 14.2046L-3.32496 7.07895ZM-5 11.0769C-5 12.5914 -4.38823 14.028 -3.32496 15.0749L3.69108 7.94923C4.51993 8.76533 5 9.88882 5 11.0769L-5 11.0769ZM-3.32496 15.0749C-2.26432 16.1192 -0.842035 16.6923 0.625 16.6923V6.69231C1.76051 6.69231 2.86486 7.13572 3.69108 7.94923L-3.32496 15.0749ZM0.625 16.6923H12.8125V6.69231H0.625V16.6923ZM12.8027 16.6923C11.9158 16.6906 11.0505 16.3427 10.4013 15.7009L17.4316 8.58928C16.1975 7.36932 14.538 6.6957 12.8223 6.69232L12.8027 16.6923ZM10.4013 15.7009C9.74948 15.0565 9.36997 14.167 9.37189 13.2237L19.3719 13.244C19.3754 11.4846 18.6683 9.81183 17.4316 8.58928L10.4013 15.7009ZM9.37189 13.2237C9.3738 12.2804 9.7569 11.3926 10.4111 10.751L17.4129 17.8906C18.6544 16.6732 19.3683 15.0033 19.3719 13.244L9.37189 13.2237ZM10.4111 10.751C11.0627 10.1119 11.9292 9.76749 12.8161 9.76924L12.7964 19.7692C14.5121 19.7726 16.1741 19.1055 17.4129 17.8906L10.4111 10.751ZM12.8027 9.76923C13.5894 9.76868 14.3616 10.0418 14.9811 10.5564L8.59149 18.2488C9.7817 19.2374 11.2765 19.7703 12.8098 19.7692L12.8027 9.76923ZM14.9811 10.5564C15.6024 11.0725 16.0326 11.8017 16.1745 12.6231L6.32051 14.3258C6.58766 15.8719 7.39955 17.2587 8.59149 18.2488L14.9811 10.5564ZM16.1774 12.64L16.1711 12.603L6.31138 14.272L6.31763 14.309L16.1774 12.64ZM16.1946 12.7559C16.0906 12.0007 15.8342 11.2772 15.4437 10.6283L6.87554 15.7846C6.57033 15.2774 6.3694 14.7112 6.28794 14.1192L16.1946 12.7559ZM15.4437 10.6283C15.0533 9.97962 14.5379 9.42009 13.9317 8.97971L8.05429 17.0702C7.58273 16.7277 7.18064 16.2916 6.87554 15.7846L15.4437 10.6283ZM13.9317 8.97971C13.3256 8.53947 12.6402 8.22645 11.9169 8.05563L9.61845 17.7879C9.05786 17.6555 8.52568 17.4127 8.05429 17.0702L13.9317 8.97971ZM11.9169 8.05563C11.1937 7.88483 10.4441 7.85885 9.71128 7.97886L11.3274 17.8474C10.7597 17.9404 10.1789 17.9203 9.61845 17.7879L11.9169 8.05563ZM9.71128 7.97886C8.97843 8.09888 8.27381 8.36307 7.63952 8.75903L12.935 17.2418C12.442 17.5496 11.8952 17.7544 11.3274 17.8474L9.71128 7.97886ZM7.63952 8.75903C7.00504 9.15511 6.45244 9.67593 6.01778 10.2942L14.1983 16.0456C13.8589 16.5284 13.4281 16.934 12.935 17.2418L7.63952 8.75903ZM6.01778 10.2942C5.58299 10.9126 5.27582 11.6149 5.11821 12.3603L14.9019 14.4292C14.7783 15.0132 14.5378 15.5627 14.1983 16.0456L6.01778 10.2942ZM5.11821 12.3603C4.96057 13.1057 4.95653 13.8755 5.10637 14.6226L14.9111 12.6562C15.0286 13.2417 15.0254 13.845 14.9019 14.4292L5.11821 12.3603ZM5.07888 14.4739L5.08513 14.5108L14.9449 12.8418L14.9386 12.8049L5.07888 14.4739ZM5.08658 14.5193C5.40043 16.3542 6.36191 18.0039 7.77949 19.1841L14.1775 11.4987C14.5731 11.828 14.8518 12.2979 14.9434 12.8333L5.08658 14.5193ZM7.77949 19.1841C9.19534 20.3628 10.9771 21.0004 12.8072 21L12.8053 11C13.297 10.9999 13.7837 11.1708 14.1775 11.4987L7.77949 19.1841ZM12.8041 21C14.8508 21.0009 16.8295 20.2026 18.3016 18.7564L11.2935 11.6229C11.7086 11.2151 12.2549 10.9998 12.8084 11L12.8041 21ZM18.3016 18.7564C19.7764 17.3075 20.6212 15.325 20.625 13.2398L10.625 13.2218C10.6261 12.6067 10.8758 12.0333 11.2935 11.6229L18.3016 18.7564ZM20.625 13.2308C20.625 11.6205 20.1269 10.1177 19.286 8.88096L11.0165 14.5037C10.7731 14.1457 10.625 13.7014 10.625 13.2308H20.625ZM15.1513 16.6923H16.875V6.69231H15.1513V16.6923ZM16.875 16.6923C19.0051 16.6923 21.0633 15.8599 22.5927 14.3539L15.5767 7.22826C15.9341 6.87638 16.4025 6.69231 16.875 6.69231V16.6923ZM22.5927 14.3539C24.1248 12.8454 25 10.7828 25 8.61538H15C15 8.08012 15.2167 7.58273 15.5767 7.22826L22.5927 14.3539ZM25 8.61538C25 6.44802 24.1248 4.38537 22.5927 2.87684L15.5767 10.0025C15.2167 9.64804 15 9.15065 15 8.61538H25ZM22.5927 2.87684C21.0633 1.37089 19.0051 0.538462 16.875 0.538462V10.5385C16.4025 10.5385 15.9341 10.3544 15.5767 10.0025L22.5927 2.87684Z" fill="#101828" mask="url(#path-1-inside-1_18_11583)" />
</svg>
<svg id="icon-AC" width="40" height="32" viewBox="0 0 40 32" x="0" y="0">
<path d="M19.38 0c-1.876 0-3.695 0.641-5.146 1.812s-2.446 2.801-2.814 4.613l-0.145 0.719c-0.039 0.161-0.044 0.328-0.016 0.49s0.090 0.318 0.18 0.457c0.091 0.139 0.209 0.259 0.347 0.352s0.295 0.158 0.459 0.19c0.165 0.032 0.334 0.032 0.498-0.002s0.32-0.099 0.458-0.193c0.138-0.094 0.255-0.214 0.345-0.354s0.15-0.296 0.177-0.459l0.148-0.716c0.277-1.343 1.051-2.537 2.171-3.351s2.507-1.189 3.892-1.054c1.385 0.135 2.67 0.772 3.606 1.787s1.456 2.335 1.459 3.706c0 1.469-0.593 2.878-1.647 3.917s-2.486 1.623-3.978 1.624h-18.125c-0.332 0-0.649 0.13-0.884 0.36s-0.366 0.544-0.366 0.87c0 0.326 0.132 0.639 0.366 0.87s0.552 0.36 0.884 0.36h18.125c2.12-0.051 4.136-0.916 5.617-2.41s2.311-3.499 2.311-5.587-0.828-4.094-2.308-5.589c-1.48-1.495-3.496-2.361-5.616-2.414zM33.75 11.077c-1.658 0-3.247 0.648-4.419 1.802s-1.831 2.719-1.831 4.351c0 0.326 0.132 0.639 0.366 0.87s0.552 0.36 0.884 0.36 0.649-0.13 0.884-0.36c0.235-0.231 0.366-0.544 0.366-0.87 0-0.73 0.22-1.444 0.632-2.051s0.998-1.080 1.683-1.36c0.685-0.279 1.439-0.353 2.167-0.21s1.396 0.494 1.92 1.011c0.524 0.516 0.882 1.174 1.026 1.891s0.070 1.459-0.213 2.133-0.765 1.251-1.381 1.657c-0.617 0.406-1.342 0.622-2.083 0.622h-32.5c-0.332 0-0.649 0.13-0.884 0.361s-0.366 0.544-0.366 0.87c0 0.326 0.132 0.64 0.366 0.87s0.552 0.36 0.884 0.36h24.375c0.829 0.002 1.623 0.327 2.208 0.906s0.913 1.361 0.911 2.177c-0.002 0.816-0.333 1.598-0.92 2.174s-1.383 0.898-2.212 0.897c-0.746 0.001-1.469-0.259-2.040-0.733s-0.952-1.132-1.078-1.856l-0.012-0.074c-0.023-0.163-0.078-0.32-0.163-0.462s-0.199-0.265-0.333-0.363-0.288-0.168-0.451-0.206c-0.163-0.039-0.332-0.044-0.497-0.017s-0.323 0.086-0.464 0.175c-0.141 0.088-0.263 0.204-0.358 0.339s-0.162 0.288-0.196 0.45c-0.034 0.161-0.035 0.328-0.003 0.489l0.013 0.074c0.222 1.299 0.905 2.479 1.927 3.33s2.317 1.317 3.655 1.317c1.493 0.001 2.926-0.582 3.983-1.621s1.652-2.447 1.655-3.918c0-1.14-0.35-2.198-0.947-3.077h3.447c1.658 0 3.247-0.648 4.419-1.802s1.831-2.719 1.831-4.351-0.658-3.197-1.831-4.351c-1.172-1.154-2.762-1.802-4.419-1.802z"></path>
<path d="M19.38 0l0.247-9.997-0.125-0.003-0.125 0 0.002 10zM11.42 6.425l-9.799-1.994-0.003 0.016 9.803 1.978zM11.275 7.143l9.724 2.331 0.042-0.176 0.036-0.178-9.803-1.978zM13.725 7.626l-9.794-2.017-0.038 0.184-0.031 0.185 9.863 1.647zM13.873 6.91v0zM25 7.998h10v-0.025l-10 0.025zM19.375 13.538v10h0.004l-0.004-10zM0 14.769v0zM19.375 16v10h0.121l0.121-0.003-0.241-9.997zM30 17.231v0zM0 22.154v0zM25.625 23.385l0.020-10h-0.020v10zM25.612 29.538l0.020-10-0.027 0 0.007 10zM22.495 26.949l-9.86 1.669 0.003 0.017 0.003 0.017 9.854-1.703zM22.483 26.875l-9.907 1.363 0.021 0.153 0.026 0.152 9.86-1.669zM20.017 27.279l9.86-1.669-0.025-0.149-0.030-0.148-9.805 1.966zM20.030 27.353l-9.86 1.669 0.003 0.017 9.857-1.686zM25.612 32l0.004-10h-0.006l0.002 10zM31.25 26.462l10 0.018v-0.018h-10zM30.303 23.385v-10h-18.892l10.622 15.623 8.27-5.623zM19.378-10c-4.146 0.001-8.183 1.414-11.424 4.030l12.561 15.563c-0.339 0.273-0.74 0.406-1.133 0.406l-0.004-20zM7.953-5.97c-3.244 2.618-5.496 6.287-6.333 10.401l19.598 3.988c-0.1 0.49-0.362 0.899-0.704 1.175l-12.561-15.563zM1.617 4.447l-0.145 0.719 19.605 3.955 0.145-0.719-19.605-3.955zM1.551 4.812c-0.356 1.485-0.405 3.028-0.143 4.534l19.705-3.425c0.205 1.18 0.167 2.39-0.112 3.553l-19.449-4.663zM1.407 9.346c0.262 1.506 0.827 2.936 1.656 4.207l16.753-10.925c0.648 0.993 1.091 2.112 1.296 3.293l-19.705 3.425zM3.063 13.553c0.829 1.271 1.901 2.353 3.148 3.19l11.152-16.602c0.969 0.651 1.806 1.494 2.453 2.487l-16.753 10.925zM6.211 16.744c1.246 0.837 2.642 1.413 4.103 1.701l3.864-19.623c1.133 0.223 2.216 0.67 3.185 1.32l-11.152 16.602zM10.314 18.445c1.461 0.288 2.966 0.283 4.425-0.014l-3.99-19.598c1.131-0.23 2.296-0.234 3.429-0.011l-3.864 19.623zM14.74 18.43c1.46-0.297 2.852-0.882 4.093-1.727l-11.259-16.53c0.965-0.657 2.045-1.111 3.177-1.341l3.99 19.598zM18.832 16.703c1.241-0.845 2.307-1.935 3.127-3.211l-16.824-10.815c0.641-0.997 1.472-1.846 2.437-2.503l11.259 16.53zM21.96 13.492c0.821-1.277 1.377-2.711 1.629-4.219l-19.727-3.295c0.197-1.181 0.633-2.304 1.274-3.302l16.824 10.815zM23.52 9.643l0.147-0.716-19.589-4.034-0.147 0.716 19.589 4.034zM23.666 8.93c-0.232 1.123-0.871 2.083-1.745 2.719l-11.756-16.18c-3.115 2.263-5.301 5.611-6.087 9.421l19.587 4.041zM21.921 11.649c-0.87 0.632-1.924 0.91-2.959 0.808l1.946-19.905c-3.805-0.372-7.632 0.656-10.743 2.916l11.756 16.18zM18.962 12.457c-1.036-0.101-2.029-0.58-2.773-1.387l14.704-13.557c-2.615-2.837-6.178-4.589-9.985-4.961l-1.946 19.905zM16.189 11.070c-0.748-0.811-1.186-1.895-1.189-3.048l20-0.050c-0.010-3.894-1.488-7.619-4.107-10.46l-14.704 13.557zM15 7.998c0-1.233 0.499-2.383 1.335-3.207l14.035 14.248c2.946-2.902 4.63-6.87 4.63-11.041h-20zM16.335 4.791c0.831-0.819 1.926-1.252 3.036-1.252l0.009 20c4.094-0.002 8.050-1.603 10.991-4.5l-14.035-14.248zM19.375 3.538h-18.125v20h18.125v-20zM1.25 3.538c-2.934 0-5.779 1.146-7.9 3.235l14.032 14.251c-1.652 1.627-3.861 2.514-6.132 2.514v-20zM-6.65 6.773c-2.127 2.094-3.35 4.967-3.35 7.996h20c0 2.376-0.96 4.623-2.618 6.255l-14.032-14.251zM-10 14.769c0 3.029 1.224 5.902 3.35 7.996l14.032-14.251c1.658 1.632 2.618 3.879 2.618 6.255h-20zM-6.65 22.765c2.121 2.089 4.966 3.235 7.9 3.235v-20c2.271 0 4.48 0.887 6.132 2.514l-14.032 14.251zM1.25 26h18.125v-20h-18.125v20zM19.616 25.997c4.68-0.113 9.161-2.022 12.478-5.367l-14.203-14.081c0.354-0.357 0.803-0.536 1.244-0.546l0.482 19.994zM32.094 20.63c3.321-3.35 5.208-7.878 5.21-12.624l-20-0.006c0-0.571 0.228-1.088 0.587-1.45l14.203 14.081zM37.303 8.006c0.002-4.747-1.883-9.276-5.202-12.628l-14.212 14.072c-0.358-0.362-0.586-0.88-0.586-1.45l20 0.006zM32.102-4.622c-3.314-3.347-7.794-5.259-12.474-5.375l-0.494 19.994c-0.44-0.011-0.89-0.19-1.243-0.547l14.212-14.072zM33.75 1.077c-4.26 0-8.376 1.665-11.435 4.677l14.032 14.251c-0.715 0.704-1.652 1.072-2.597 1.072v-20zM22.315 5.754c-3.064 3.017-4.815 7.142-4.815 11.477h20c0 1.071-0.433 2.065-1.153 2.774l-14.032-14.251zM17.5 17.231c0 3.029 1.224 5.902 3.35 7.996l14.032-14.251c1.658 1.632 2.618 3.879 2.618 6.255h-20zM20.85 25.227c2.121 2.089 4.966 3.235 7.9 3.235v-20c2.271 0 4.48 0.887 6.132 2.514l-14.032 14.251zM28.75 28.462c2.934 0 5.779-1.146 7.9-3.235l-14.032-14.251c1.652-1.627 3.861-2.514 6.132-2.514v20zM36.65 25.227c2.126-2.094 3.35-4.967 3.35-7.996h-20c0-2.376 0.96-4.623 2.618-6.255l14.032 14.251zM40 17.231c0 1.282-0.387 2.523-1.093 3.564l-16.549-11.231c-1.531 2.255-2.357 4.924-2.357 7.667h20zM38.907 20.795c-0.705 1.039-1.691 1.826-2.815 2.284l-7.553-18.519c-2.495 1.017-4.652 2.751-6.181 5.004l16.549 11.231zM36.091 23.079c-1.123 0.458-2.35 0.575-3.532 0.344l3.844-19.627c-2.637-0.516-5.372-0.253-7.865 0.764l7.553 18.519zM32.56 23.423c-1.183-0.232-2.29-0.807-3.174-1.677l14.032-14.251c-1.933-1.903-4.376-3.182-7.014-3.698l-3.844 19.627zM29.386 21.746c-0.885-0.872-1.506-2.002-1.76-3.255l19.604-3.96c-0.543-2.686-1.878-5.131-3.812-7.036l-14.032 14.251zM27.626 18.491c-0.253-1.254-0.122-2.553 0.371-3.725l18.435 7.755c1.060-2.521 1.341-5.304 0.798-7.991l-19.604 3.96zM27.997 14.766c0.492-1.17 1.315-2.145 2.34-2.819l10.992 16.708c2.259-1.486 4.043-3.614 5.103-6.134l-18.435-7.755zM30.337 11.947c1.024-0.673 2.211-1.024 3.413-1.024v20c2.685 0 5.323-0.783 7.58-2.268l-10.992-16.708zM33.75 10.923h-32.5v20h32.5v-20zM1.25 10.923c-2.934 0-5.779 1.146-7.9 3.235l14.032 14.251c-1.652 1.627-3.861 2.514-6.132 2.514v-20zM-6.65 14.158c-2.127 2.094-3.35 4.967-3.35 7.996h20c0 2.376-0.96 4.623-2.618 6.255l-14.032-14.251zM-10 22.154c0 3.029 1.224 5.902 3.35 7.996l14.032-14.251c1.658 1.632 2.618 3.879 2.618 6.255h-20zM-6.65 30.15c2.121 2.089 4.966 3.235 7.9 3.235v-20c2.271 0 4.48 0.887 6.132 2.514l-14.032 14.251zM1.25 33.385h24.375v-20h-24.375v20zM25.605 33.385c-1.774-0.003-3.504-0.699-4.803-1.983l14.061-14.223c-2.468-2.44-5.787-3.787-9.219-3.794l-0.039 20zM20.803 31.402c-1.304-1.289-2.063-3.068-2.059-4.954l20 0.041c0.007-3.519-1.407-6.864-3.881-9.309l-14.061 14.223zM18.744 26.447c0.004-1.887 0.77-3.662 2.078-4.945l14.004 14.279c2.483-2.435 3.911-5.775 3.918-9.293l-20-0.041zM20.822 21.502c1.303-1.278 3.036-1.967 4.81-1.964l-0.039 20c3.431 0.007 6.755-1.327 9.233-3.757l-14.004-14.279zM25.605 19.538c1.573-0.001 3.118 0.545 4.357 1.574l-12.779 15.385c2.38 1.977 5.37 3.043 8.437 3.041l-0.014-20zM29.962 21.113c1.243 1.032 2.103 2.491 2.387 4.133l-19.708 3.405c0.534 3.092 2.158 5.866 4.542 7.846l12.779-15.385zM32.355 25.28l-0.013-0.074-19.719 3.338 0.012 0.074 19.72-3.338zM32.389 25.512c-0.208-1.51-0.721-2.957-1.502-4.255l-17.136 10.313c-0.61-1.014-1.012-2.147-1.175-3.331l19.813-2.727zM30.887 21.257c-0.781-1.297-1.812-2.416-3.024-3.297l-11.755 16.181c-0.943-0.685-1.747-1.557-2.357-2.571l17.136-10.313zM27.863 17.959c-1.212-0.88-2.583-1.507-4.030-1.848l-4.597 19.465c-1.121-0.265-2.186-0.75-3.128-1.435l11.755-16.181zM23.834 16.111c-1.446-0.342-2.946-0.394-4.411-0.154l3.232 19.737c-1.135 0.186-2.297 0.146-3.418-0.119l4.597-19.465zM19.423 15.958c-1.466 0.24-2.875 0.768-4.144 1.56l10.591 16.966c-0.986 0.616-2.080 1.025-3.215 1.211l-3.232-19.737zM15.279 17.518c-1.269 0.792-2.374 1.834-3.243 3.070l16.361 11.503c-0.679 0.966-1.54 1.777-2.527 2.392l-10.591-16.966zM12.036 20.588c-0.87 1.237-1.484 2.641-1.799 4.132l19.567 4.138c-0.247 1.168-0.728 2.267-1.407 3.233l-16.361-11.503zM10.236 24.721c-0.315 1.491-0.323 3.030-0.024 4.525l19.609-3.933c0.235 1.171 0.229 2.378-0.018 3.546l-19.567-4.138zM10.158 28.948l0.012 0.074 19.72-3.338-0.013-0.074-19.719 3.338zM10.173 29.039c0.628 3.67 2.551 6.969 5.386 9.33l12.796-15.371c0.791 0.659 1.349 1.598 1.532 2.669l-19.714 3.372zM15.559 38.368c2.832 2.357 6.395 3.633 10.055 3.632l-0.004-20c0.983-0 1.957 0.342 2.744 0.997l-12.796 15.371zM25.608 42c4.093 0.002 8.051-1.595 10.995-4.487l-14.016-14.267c0.83-0.816 1.923-1.246 3.030-1.246l-0.009 20zM36.603 37.513c2.95-2.898 4.639-6.863 4.647-11.033l-20-0.036c0.002-1.23 0.502-2.377 1.337-3.198l14.016 14.267zM41.25 26.462c0-3.221-0.996-6.226-2.678-8.7l-16.539 11.245c-0.487-0.716-0.783-1.605-0.783-2.546h20zM30.303 33.385h3.447v-20h-3.447v20zM33.75 33.385c4.26 0 8.376-1.665 11.435-4.677l-14.032-14.251c0.715-0.704 1.652-1.072 2.597-1.072v20zM45.185 28.708c3.064-3.017 4.815-7.142 4.815-11.477h-20c0-1.071 0.433-2.065 1.153-2.774l14.032 14.251zM50 17.231c0-4.335-1.75-8.46-4.815-11.477l-14.032 14.251c-0.72-0.709-1.153-1.704-1.153-2.774h20zM45.185 5.754c-3.059-3.012-7.175-4.677-11.435-4.677v20c-0.945 0-1.882-0.368-2.597-1.072l14.032-14.251z"></path>
</svg>
<svg id="icon-Alcove" width="46" height="32" viewBox="0 0 46 32" x="48" y="0">
<path d="M2.608 1.8h12.409c0.105 0 0.203-0.040 0.278-0.112l1.192-1.163c0.346-0.338 0.807-0.524 1.297-0.524h18.817c0.876 0 1.69 0.425 2.176 1.136l2.255 3.3c0.32 0.468 0.349 1.067 0.077 1.564s-0.8 0.805-1.377 0.805h-9.698v0.956h4.967c1.317 0 2.501 0.763 3.018 1.945l2.908 6.65 2.548 0.994c1.36 0.531 2.24 1.797 2.24 3.227v6.158c0 0.918-0.766 1.666-1.708 1.666h-2.964c-0.345 2.039-2.164 3.599-4.35 3.599s-4.005-1.561-4.35-3.599h-16.203c-0.345 2.039-2.164 3.599-4.35 3.599s-4.005-1.561-4.35-3.599h-5.921c-0.837 0-1.518-0.664-1.518-1.481v-22.576c0-1.403 1.17-2.544 2.608-2.544zM36.692 30.594c1.637 0 2.969-1.299 2.969-2.896s-1.332-2.896-2.969-2.896c-1.637 0-2.969 1.299-2.969 2.896s1.332 2.896 2.969 2.896zM30.034 26.995h2.307c0.006-0.035 0.013-0.070 0.020-0.105 0.005-0.024 0.009-0.047 0.014-0.071 0.012-0.055 0.025-0.11 0.039-0.164 0.003-0.011 0.005-0.023 0.009-0.034 0.017-0.066 0.036-0.13 0.057-0.195 0.006-0.019 0.013-0.037 0.019-0.056 0.015-0.045 0.031-0.090 0.047-0.134 0.009-0.024 0.018-0.047 0.028-0.071 0.015-0.039 0.030-0.078 0.047-0.116 0.010-0.025 0.022-0.050 0.033-0.075 0.016-0.037 0.032-0.072 0.050-0.108 0.013-0.025 0.025-0.050 0.038-0.075 0.017-0.034 0.036-0.069 0.054-0.103 0.013-0.025 0.027-0.049 0.041-0.074 0.019-0.034 0.039-0.067 0.059-0.101 0.014-0.024 0.029-0.047 0.043-0.071 0.022-0.034 0.044-0.067 0.066-0.101 0.015-0.022 0.029-0.044 0.044-0.065 0.025-0.035 0.051-0.070 0.077-0.105 0.013-0.018 0.026-0.037 0.040-0.055 0.036-0.046 0.072-0.090 0.109-0.135 0.005-0.007 0.010-0.014 0.016-0.020 0.043-0.051 0.087-0.1 0.132-0.148 0.014-0.015 0.028-0.029 0.043-0.044 0.032-0.033 0.063-0.066 0.096-0.099 0.018-0.018 0.038-0.035 0.056-0.053 0.029-0.028 0.059-0.056 0.090-0.084 0.020-0.018 0.041-0.036 0.062-0.054 0.030-0.026 0.060-0.051 0.090-0.077l0.066-0.052c0.031-0.024 0.062-0.048 0.093-0.071 0.022-0.017 0.045-0.034 0.069-0.050 0.032-0.023 0.064-0.045 0.097-0.068 0.023-0.015 0.046-0.031 0.069-0.046 0.034-0.023 0.069-0.044 0.104-0.065 0.022-0.014 0.045-0.028 0.068-0.041 0.038-0.023 0.077-0.044 0.116-0.065 0.020-0.011 0.040-0.023 0.059-0.033 0.056-0.029 0.112-0.057 0.168-0.084 0.005-0.002 0.009-0.004 0.013-0.006 0.061-0.029 0.123-0.056 0.186-0.082 0.020-0.008 0.041-0.016 0.061-0.024 0.043-0.017 0.086-0.034 0.13-0.050 0.025-0.009 0.050-0.017 0.075-0.026 0.040-0.014 0.080-0.027 0.12-0.039 0.027-0.008 0.054-0.016 0.082-0.024 0.039-0.011 0.078-0.023 0.118-0.033 0.028-0.007 0.056-0.015 0.085-0.021 0.039-0.009 0.078-0.018 0.118-0.026 0.029-0.006 0.058-0.012 0.087-0.018 0.040-0.007 0.081-0.015 0.122-0.021 0.029-0.005 0.057-0.010 0.086-0.014 0.042-0.006 0.085-0.011 0.128-0.016 0.027-0.003 0.055-0.007 0.082-0.009 0.047-0.004 0.095-0.008 0.143-0.011 0.024-0.002 0.047-0.004 0.070-0.005 0.072-0.004 0.144-0.006 0.216-0.006s0.144 0.002 0.216 0.006c0.024 0.001 0.047 0.003 0.070 0.005 0.048 0.003 0.096 0.006 0.143 0.011 0.028 0.002 0.055 0.006 0.082 0.009 0.043 0.005 0.086 0.010 0.128 0.016 0.029 0.004 0.058 0.008 0.087 0.014 0.041 0.006 0.081 0.014 0.122 0.021 0.029 0.006 0.058 0.012 0.087 0.018 0.040 0.008 0.079 0.017 0.118 0.026 0.029 0.007 0.057 0.014 0.085 0.021 0.039 0.010 0.078 0.021 0.118 0.033 0.028 0.008 0.055 0.016 0.082 0.024 0.040 0.012 0.080 0.026 0.12 0.039 0.025 0.009 0.050 0.017 0.075 0.026 0.044 0.016 0.087 0.033 0.13 0.050 0.020 0.008 0.041 0.016 0.061 0.024 0.062 0.026 0.125 0.053 0.186 0.082 0.005 0.002 0.009 0.005 0.013 0.006 0.057 0.027 0.112 0.055 0.168 0.084 0.020 0.011 0.039 0.022 0.059 0.033 0.039 0.021 0.078 0.043 0.116 0.065 0.023 0.014 0.045 0.028 0.068 0.041 0.035 0.021 0.070 0.043 0.104 0.065 0.023 0.015 0.046 0.031 0.069 0.046 0.033 0.023 0.065 0.044 0.097 0.068 0.023 0.016 0.046 0.033 0.069 0.050 0.031 0.024 0.062 0.047 0.093 0.071l0.066 0.052c0.031 0.025 0.061 0.051 0.090 0.077 0.021 0.018 0.041 0.036 0.062 0.054 0.031 0.028 0.060 0.056 0.090 0.084 0.018 0.017 0.037 0.035 0.056 0.053 0.033 0.033 0.065 0.066 0.096 0.099 0.014 0.015 0.029 0.029 0.043 0.044 0.045 0.048 0.089 0.098 0.132 0.148 0.006 0.007 0.011 0.014 0.016 0.020 0.037 0.044 0.073 0.089 0.109 0.135 0.014 0.018 0.027 0.037 0.040 0.055 0.026 0.035 0.052 0.070 0.077 0.105 0.015 0.021 0.029 0.043 0.044 0.065 0.022 0.034 0.044 0.067 0.066 0.101 0.014 0.024 0.029 0.047 0.043 0.071 0.020 0.033 0.040 0.067 0.059 0.101 0.014 0.025 0.028 0.049 0.041 0.074 0.018 0.034 0.037 0.069 0.054 0.103 0.013 0.025 0.025 0.050 0.038 0.075 0.017 0.036 0.033 0.071 0.050 0.108 0.011 0.025 0.023 0.049 0.033 0.075 0.017 0.038 0.032 0.077 0.047 0.116 0.010 0.024 0.019 0.047 0.028 0.071 0.016 0.044 0.032 0.089 0.047 0.134 0.006 0.019 0.013 0.038 0.019 0.056 0.020 0.064 0.039 0.129 0.056 0.195 0.003 0.011 0.006 0.023 0.009 0.034 0.014 0.055 0.027 0.109 0.039 0.164 0.005 0.024 0.009 0.047 0.014 0.071 0.007 0.035 0.014 0.069 0.020 0.105h2.963c0.147 0 0.266-0.116 0.266-0.26v-2.946h-1.124v-1.406h1.124v-1.806c0-0.851-0.523-1.606-1.333-1.922l-2.697-1.052h-10.209v9.392zM30.034 16.197h9.257l-2.598-5.939c-0.29-0.662-0.954-1.090-1.692-1.090h-4.967v7.030zM11.789 30.594c1.637 0 2.969-1.299 2.969-2.896s-1.332-2.896-2.969-2.896c-0.051 0-0.102 0.001-0.153 0.004-1.364 0.067-2.488 1.038-2.756 2.309-0.010 0.047-0.019 0.095-0.027 0.143-0.015 0.096-0.025 0.193-0.030 0.291-0.003 0.049-0.004 0.099-0.004 0.149 0 1.597 1.332 2.896 2.969 2.896zM1.441 22.383h1.124v1.406h-1.124v3.131c0 0.041 0.035 0.075 0.077 0.075h5.92c0.006-0.035 0.013-0.069 0.020-0.104 0.005-0.024 0.009-0.048 0.014-0.072 0.012-0.054 0.024-0.107 0.038-0.16 0.003-0.012 0.006-0.025 0.009-0.038 0.017-0.065 0.036-0.129 0.056-0.193 0.006-0.020 0.013-0.039 0.020-0.058 0.015-0.044 0.030-0.089 0.046-0.132 0.009-0.025 0.019-0.048 0.028-0.072 0.015-0.038 0.031-0.077 0.046-0.114 0.011-0.026 0.022-0.051 0.034-0.076 0.016-0.036 0.032-0.071 0.050-0.106 0.012-0.026 0.025-0.051 0.038-0.076 0.017-0.034 0.035-0.068 0.054-0.102 0.014-0.025 0.028-0.049 0.042-0.074 0.020-0.034 0.039-0.067 0.059-0.1 0.014-0.024 0.029-0.048 0.044-0.071 0.021-0.034 0.043-0.067 0.066-0.1 0.014-0.023 0.029-0.045 0.044-0.066 0.025-0.035 0.051-0.070 0.076-0.104 0.014-0.019 0.028-0.038 0.042-0.057 0.035-0.044 0.070-0.088 0.106-0.132 0.006-0.008 0.012-0.016 0.018-0.023 0.043-0.051 0.087-0.1 0.132-0.148 0.014-0.015 0.029-0.030 0.043-0.045 0.032-0.033 0.063-0.066 0.096-0.098 0.018-0.018 0.037-0.035 0.056-0.053 0.029-0.028 0.059-0.056 0.089-0.083 0.020-0.018 0.041-0.036 0.062-0.055 0.029-0.025 0.059-0.051 0.090-0.075 0.022-0.018 0.044-0.036 0.066-0.053 0.030-0.024 0.061-0.047 0.092-0.071 0.022-0.017 0.046-0.034 0.069-0.050 0.032-0.023 0.064-0.045 0.096-0.067 0.024-0.016 0.047-0.031 0.070-0.047 0.034-0.023 0.069-0.044 0.103-0.065 0.023-0.014 0.046-0.028 0.069-0.042 0.038-0.023 0.077-0.044 0.116-0.065 0.020-0.011 0.040-0.023 0.061-0.033 0.055-0.029 0.11-0.057 0.167-0.083 0.005-0.002 0.009-0.005 0.014-0.007 0.061-0.029 0.123-0.056 0.186-0.082 0.020-0.008 0.041-0.016 0.061-0.024 0.043-0.017 0.086-0.034 0.13-0.050 0.025-0.009 0.050-0.017 0.076-0.026 0.039-0.014 0.079-0.027 0.119-0.039 0.027-0.008 0.055-0.016 0.082-0.024 0.039-0.011 0.078-0.023 0.118-0.033 0.028-0.007 0.056-0.015 0.085-0.021 0.039-0.009 0.078-0.018 0.118-0.026 0.029-0.006 0.058-0.012 0.087-0.018 0.040-0.007 0.081-0.015 0.122-0.021 0.029-0.005 0.057-0.010 0.086-0.014 0.042-0.006 0.085-0.011 0.128-0.016 0.027-0.003 0.055-0.007 0.082-0.009 0.047-0.004 0.095-0.008 0.143-0.011 0.024-0.002 0.047-0.004 0.070-0.005 0.072-0.004 0.144-0.006 0.216-0.006s0.144 0.002 0.216 0.006c0.024 0.001 0.047 0.003 0.070 0.005 0.048 0.003 0.096 0.006 0.143 0.011 0.028 0.002 0.055 0.006 0.082 0.009 0.043 0.005 0.086 0.010 0.128 0.016 0.029 0.004 0.058 0.008 0.086 0.014 0.041 0.006 0.081 0.014 0.122 0.021 0.029 0.006 0.058 0.012 0.087 0.018 0.040 0.008 0.079 0.017 0.118 0.026 0.029 0.007 0.057 0.014 0.085 0.021 0.039 0.010 0.078 0.021 0.118 0.033 0.027 0.008 0.055 0.016 0.082 0.024 0.040 0.012 0.080 0.026 0.119 0.039 0.025 0.009 0.051 0.017 0.076 0.026 0.044 0.016 0.086 0.033 0.13 0.050 0.020 0.008 0.041 0.016 0.061 0.024 0.062 0.026 0.124 0.053 0.186 0.082 0.005 0.002 0.010 0.005 0.014 0.007 0.056 0.026 0.112 0.054 0.167 0.083 0.021 0.011 0.040 0.022 0.060 0.033 0.039 0.021 0.078 0.043 0.116 0.065 0.023 0.014 0.046 0.028 0.069 0.042 0.035 0.021 0.069 0.042 0.103 0.065 0.023 0.015 0.046 0.031 0.070 0.047 0.032 0.022 0.065 0.044 0.096 0.067 0.023 0.016 0.046 0.033 0.069 0.050 0.031 0.024 0.062 0.047 0.092 0.071 0.023 0.017 0.044 0.035 0.066 0.053 0.031 0.025 0.061 0.050 0.090 0.076 0.021 0.018 0.042 0.036 0.062 0.054 0.030 0.028 0.060 0.056 0.090 0.084 0.018 0.017 0.037 0.035 0.056 0.053 0.032 0.032 0.065 0.065 0.096 0.098 0.014 0.015 0.029 0.029 0.043 0.044 0.045 0.048 0.089 0.098 0.132 0.148 0.006 0.007 0.012 0.015 0.017 0.021 0.036 0.044 0.073 0.088 0.107 0.134 0.014 0.018 0.028 0.037 0.042 0.055 0.026 0.035 0.052 0.070 0.077 0.105 0.015 0.021 0.029 0.044 0.044 0.066 0.023 0.033 0.044 0.066 0.066 0.1 0.015 0.024 0.029 0.047 0.044 0.071 0.020 0.033 0.040 0.067 0.059 0.101 0.014 0.025 0.028 0.049 0.041 0.074 0.019 0.034 0.037 0.069 0.055 0.103 0.013 0.025 0.025 0.050 0.037 0.075 0.017 0.036 0.034 0.072 0.050 0.108 0.012 0.025 0.023 0.049 0.033 0.075 0.017 0.038 0.032 0.077 0.047 0.116 0.009 0.024 0.018 0.047 0.028 0.071 0.017 0.045 0.032 0.090 0.047 0.135 0.006 0.019 0.013 0.037 0.019 0.055 0.020 0.064 0.039 0.129 0.057 0.195 0.002 0.010 0.005 0.021 0.007 0.031 0.014 0.056 0.028 0.111 0.040 0.168 0.005 0.023 0.009 0.046 0.013 0.069 0.007 0.035 0.014 0.070 0.021 0.106h12.453v-20.893c0-0.388 0.323-0.703 0.721-0.703h10.419c0.018 0 0.073 0 0.107-0.062s0.004-0.106-0.006-0.12l-2.255-3.3c-0.218-0.319-0.583-0.51-0.977-0.51h-18.817c-0.105 0-0.204 0.040-0.278 0.112l-1.192 1.163c-0.346 0.338-0.807 0.524-1.297 0.524h-12.409c-0.643 0-1.167 0.511-1.167 1.138v18.039z"></path>
<path d="M20.116 7.198h4.558c0.921 0 1.67 0.731 1.67 1.629v15.046c0 0.388-0.323 0.703-0.721 0.703h-6.456c-0.398 0-0.721-0.315-0.721-0.703v-15.046c-0.001-0.899 0.748-1.629 1.669-1.629zM19.887 23.17h5.015v-8.267h-5.015v8.267zM19.887 13.497h5.015v-4.669c0-0.123-0.103-0.223-0.229-0.223h-4.558c-0.126 0-0.229 0.1-0.229 0.223v4.669h0.001zM5.536 7.198h8.814c1.019 0 1.848 0.809 1.848 1.802v4.1c0 0.994-0.829 1.802-1.848 1.802h-8.815c-1.019 0-1.848-0.809-1.848-1.802v-4.1c0.001-0.994 0.83-1.802 1.848-1.802zM5.129 13.1c0 0.218 0.182 0.396 0.406 0.396h8.814c0.224 0 0.406-0.178 0.406-0.396v-4.1c0-0.218-0.182-0.396-0.406-0.396h-8.815c-0.224 0-0.406 0.178-0.406 0.396v4.1h0.001z"></path>
</svg>
<svg id="icon-Bed" width="32" height="32" viewBox="0 0 32 32" x="144" y="0">
<path fill="none" stroke="#000" stroke-width="2.24" stroke-miterlimit="4" stroke-linecap="round" stroke-linejoin="round" d="M3 26v-7c0.003-1.060 0.426-2.076 1.175-2.825s1.765-1.172 2.825-1.175h18c1.060 0.003 2.076 0.426 2.825 1.175s1.172 1.765 1.175 2.825v7M24 15h-18v-6.5c0.002-0.662 0.266-1.297 0.734-1.766s1.103-0.732 1.766-0.734h15c0.662 0.002 1.297 0.266 1.766 0.734s0.732 1.103 0.734 1.766v6.5h-2z"></path>
<path fill="none" stroke="#000" stroke-width="2.24" stroke-miterlimit="4" stroke-linecap="round" stroke-linejoin="round" d="M3 26v-0.5c0.001-0.397 0.16-0.778 0.441-1.059s0.662-0.44 1.059-0.441h23c0.397 0.001 0.778 0.16 1.059 0.441s0.44 0.662 0.441 1.059v0.5M7 15v-1c0.002-0.53 0.213-1.038 0.587-1.413s0.883-0.586 1.413-0.587h5c0.53 0.002 1.038 0.213 1.413 0.587s0.586 0.883 0.587 1.413M16 14v1M16 14c0.001-0.53 0.213-1.038 0.587-1.413s0.883-0.586 1.413-0.587h5c0.53 0.002 1.038 0.213 1.413 0.587s0.586 0.883 0.587 1.413v1"></path>
</svg>
<svg id="icon-Calendar" width="32" height="32" viewBox="0 0 32 32" x="192" y="0">
<path fill="none" stroke="#000" stroke-width="2.4" stroke-miterlimit="4" stroke-linecap="round" stroke-linejoin="round" d="M25.333 5.333h-18.667c-1.473 0-2.667 1.194-2.667 2.667v18.667c0 1.473 1.194 2.667 2.667 2.667h18.667c1.473 0 2.667-1.194 2.667-2.667v-18.667c0-1.473-1.194-2.667-2.667-2.667z"></path>
<path fill="none" stroke="#000" stroke-width="2.4" stroke-miterlimit="4" stroke-linecap="round" stroke-linejoin="round" d="M21.333 2.667v5.333"></path>
<path fill="none" stroke="#000" stroke-width="2.4" stroke-miterlimit="4" stroke-linecap="round" stroke-linejoin="round" d="M10.667 2.667v5.333"></path>
<path fill="none" stroke="#000" stroke-width="2.4" stroke-miterlimit="4" stroke-linecap="round" stroke-linejoin="round" d="M4 13.333h24"></path>
</svg>
<svg id="icon-Fuel" width="32" height="32" viewBox="0 0 32 32" x="240" y="0">
<path d="M26.36 9.64l0.013-0.013-4.96-4.96-1.413 1.413 2.813 2.813c-1.253 0.48-2.147 1.68-2.147 3.107 0 0.438 0.086 0.871 0.254 1.276s0.413 0.772 0.723 1.081c0.625 0.625 1.473 0.976 2.357 0.976 0.48 0 0.92-0.107 1.333-0.28v9.613c0 0.354-0.14 0.693-0.391 0.943s-0.589 0.391-0.943 0.391c-0.354 0-0.693-0.14-0.943-0.391s-0.391-0.589-0.391-0.943v-6c0-0.707-0.281-1.386-0.781-1.886s-1.178-0.781-1.886-0.781h-1.333v-9.333c0-0.707-0.281-1.386-0.781-1.886s-1.178-0.781-1.886-0.781h-8c-0.707 0-1.386 0.281-1.886 0.781s-0.781 1.178-0.781 1.886v21.333h13.333v-10h2v6.667c0 0.884 0.351 1.732 0.976 2.357s1.473 0.976 2.357 0.976c0.438 0 0.871-0.086 1.276-0.254s0.772-0.413 1.081-0.723c0.309-0.309 0.555-0.677 0.723-1.081s0.254-0.838 0.254-1.276v-12.667c0-0.92-0.373-1.76-0.973-2.36zM16 18v7.333h-8v-9.333h8v2zM16 13.333h-8v-6.667h8v6.667zM24 13.333c-0.354 0-0.693-0.14-0.943-0.39s-0.391-0.589-0.391-0.943 0.14-0.693 0.391-0.943c0.25-0.25 0.589-0.39 0.943-0.39s0.693 0.14 0.943 0.39c0.25 0.25 0.391 0.589 0.391 0.943s-0.14 0.693-0.391 0.943c-0.25 0.25-0.589 0.39-0.943 0.39z"></path>
</svg>
<svg id="icon-FullyIntegrated" width="46" height="32" viewBox="0 0 46 32" x="288" y="0">
<path d="M2.608 1.8h12.409c0.105 0 0.203-0.040 0.278-0.112l1.192-1.163c0.346-0.338 0.807-0.524 1.297-0.524h18.817c0.876 0 1.69 0.425 2.176 1.136l2.255 3.3c0.32 0.468 0.349 1.067 0.077 1.564s-0.8 0.805-1.377 0.805h-9.698v0.956h4.967c1.317 0 2.501 0.763 3.018 1.945l2.908 6.65 2.548 0.994c1.36 0.531 2.24 1.797 2.24 3.227v6.158c0 0.918-0.766 1.666-1.708 1.666h-2.964c-0.345 2.039-2.164 3.599-4.35 3.599s-4.005-1.561-4.35-3.599h-16.203c-0.345 2.039-2.164 3.599-4.35 3.599s-4.005-1.561-4.35-3.599h-5.921c-0.837 0-1.518-0.664-1.518-1.481v-22.576c0-1.403 1.17-2.544 2.608-2.544zM36.692 30.594c1.637 0 2.969-1.299 2.969-2.896s-1.332-2.896-2.969-2.896c-1.637 0-2.969 1.299-2.969 2.896s1.332 2.896 2.969 2.896zM30.034 26.995h2.307c0.006-0.035 0.013-0.070 0.020-0.105 0.005-0.024 0.009-0.047 0.014-0.071 0.012-0.055 0.025-0.11 0.039-0.164 0.003-0.011 0.005-0.023 0.009-0.034 0.017-0.066 0.036-0.13 0.057-0.195 0.006-0.019 0.013-0.037 0.019-0.056 0.015-0.045 0.031-0.090 0.047-0.134 0.009-0.024 0.018-0.047 0.028-0.071 0.015-0.039 0.030-0.078 0.047-0.116 0.010-0.025 0.022-0.050 0.033-0.075 0.016-0.037 0.032-0.072 0.050-0.108 0.013-0.025 0.025-0.050 0.038-0.075 0.017-0.034 0.036-0.069 0.054-0.103 0.013-0.025 0.027-0.049 0.041-0.074 0.019-0.034 0.039-0.067 0.059-0.101 0.014-0.024 0.029-0.047 0.043-0.071 0.022-0.034 0.044-0.067 0.066-0.101 0.015-0.022 0.029-0.044 0.044-0.065 0.025-0.035 0.051-0.070 0.077-0.105 0.013-0.018 0.026-0.037 0.040-0.055 0.036-0.046 0.072-0.090 0.109-0.135 0.005-0.007 0.010-0.014 0.016-0.020 0.043-0.051 0.087-0.1 0.132-0.148 0.014-0.015 0.028-0.029 0.043-0.044 0.032-0.033 0.063-0.066 0.096-0.099 0.018-0.018 0.038-0.035 0.056-0.053 0.029-0.028 0.059-0.056 0.090-0.084 0.020-0.018 0.041-0.036 0.062-0.054 0.030-0.026 0.060-0.051 0.090-0.077l0.066-0.052c0.031-0.024 0.062-0.048 0.093-0.071 0.022-0.017 0.045-0.034 0.069-0.050 0.032-0.023 0.064-0.045 0.097-0.068 0.023-0.015 0.046-0.031 0.069-0.046 0.034-0.023 0.069-0.044 0.104-0.065 0.022-0.014 0.045-0.028 0.068-0.041 0.038-0.023 0.077-0.044 0.116-0.065 0.020-0.011 0.040-0.023 0.059-0.033 0.056-0.029 0.112-0.057 0.168-0.084 0.005-0.002 0.009-0.004 0.013-0.006 0.061-0.029 0.123-0.056 0.186-0.082 0.020-0.008 0.041-0.016 0.061-0.024 0.043-0.017 0.086-0.034 0.13-0.050 0.025-0.009 0.050-0.017 0.075-0.026 0.040-0.014 0.080-0.027 0.12-0.039 0.027-0.008 0.054-0.016 0.082-0.024 0.039-0.011 0.078-0.023 0.118-0.033 0.028-0.007 0.056-0.015 0.085-0.021 0.039-0.009 0.078-0.018 0.118-0.026 0.029-0.006 0.058-0.012 0.087-0.018 0.040-0.007 0.081-0.015 0.122-0.021 0.029-0.005 0.057-0.010 0.086-0.014 0.042-0.006 0.085-0.011 0.128-0.016 0.027-0.003 0.055-0.007 0.082-0.009 0.047-0.004 0.095-0.008 0.143-0.011 0.024-0.002 0.047-0.004 0.070-0.005 0.072-0.004 0.144-0.006 0.216-0.006s0.144 0.002 0.216 0.006c0.024 0.001 0.047 0.003 0.070 0.005 0.048 0.003 0.096 0.006 0.143 0.011 0.028 0.002 0.055 0.006 0.082 0.009 0.043 0.005 0.086 0.010 0.128 0.016 0.029 0.004 0.058 0.008 0.087 0.014 0.041 0.006 0.081 0.014 0.122 0.021 0.029 0.006 0.058 0.012 0.087 0.018 0.040 0.008 0.079 0.017 0.118 0.026 0.029 0.007 0.057 0.014 0.085 0.021 0.039 0.010 0.078 0.021 0.118 0.033 0.028 0.008 0.055 0.016 0.082 0.024 0.040 0.012 0.080 0.026 0.12 0.039 0.025 0.009 0.050 0.017 0.075 0.026 0.044 0.016 0.087 0.033 0.13 0.050 0.020 0.008 0.041 0.016 0.061 0.024 0.062 0.026 0.125 0.053 0.186 0.082 0.005 0.002 0.009 0.005 0.013 0.006 0.057 0.027 0.112 0.055 0.168 0.084 0.020 0.011 0.039 0.022 0.059 0.033 0.039 0.021 0.078 0.043 0.116 0.065 0.023 0.014 0.045 0.028 0.068 0.041 0.035 0.021 0.070 0.043 0.104 0.065 0.023 0.015 0.046 0.031 0.069 0.046 0.033 0.023 0.065 0.044 0.097 0.068 0.023 0.016 0.046 0.033 0.069 0.050 0.031 0.024 0.062 0.047 0.093 0.071l0.066 0.052c0.031 0.025 0.061 0.051 0.090 0.077 0.021 0.018 0.041 0.036 0.062 0.054 0.031 0.028 0.060 0.056 0.090 0.084 0.018 0.017 0.037 0.035 0.056 0.053 0.033 0.033 0.065 0.066 0.096 0.099 0.014 0.015 0.029 0.029 0.043 0.044 0.045 0.048 0.089 0.098 0.132 0.148 0.006 0.007 0.011 0.014 0.016 0.020 0.037 0.044 0.073 0.089 0.109 0.135 0.014 0.018 0.027 0.037 0.040 0.055 0.026 0.035 0.052 0.070 0.077 0.105 0.015 0.021 0.029 0.043 0.044 0.065 0.022 0.034 0.044 0.067 0.066 0.101 0.014 0.024 0.029 0.047 0.043 0.071 0.020 0.033 0.040 0.067 0.059 0.101 0.014 0.025 0.028 0.049 0.041 0.074 0.018 0.034 0.037 0.069 0.054 0.103 0.013 0.025 0.025 0.050 0.038 0.075 0.017 0.036 0.033 0.071 0.050 0.108 0.011 0.025 0.023 0.049 0.033 0.075 0.017 0.038 0.032 0.077 0.047 0.116 0.010 0.024 0.019 0.047 0.028 0.071 0.016 0.044 0.032 0.089 0.047 0.134 0.006 0.019 0.013 0.038 0.019 0.056 0.020 0.064 0.039 0.129 0.056 0.195 0.003 0.011 0.006 0.023 0.009 0.034 0.014 0.055 0.027 0.109 0.039 0.164 0.005 0.024 0.009 0.047 0.014 0.071 0.007 0.035 0.014 0.069 0.020 0.105h2.963c0.147 0 0.266-0.116 0.266-0.26v-2.946h-1.124v-1.406h1.124v-1.806c0-0.851-0.523-1.606-1.333-1.922l-2.697-1.052h-10.209v9.392zM30.034 16.197h9.257l-2.598-5.939c-0.29-0.662-0.954-1.090-1.692-1.090h-4.967v7.030zM11.789 30.594c1.637 0 2.969-1.299 2.969-2.896s-1.332-2.896-2.969-2.896c-0.051 0-0.102 0.001-0.153 0.004-1.364 0.067-2.488 1.038-2.756 2.309-0.010 0.047-0.019 0.095-0.027 0.143-0.015 0.096-0.025 0.193-0.030 0.291-0.003 0.049-0.004 0.099-0.004 0.149 0 1.597 1.332 2.896 2.969 2.896zM1.441 22.383h1.124v1.406h-1.124v3.131c0 0.041 0.035 0.075 0.077 0.075h5.92c0.006-0.035 0.013-0.069 0.020-0.104 0.005-0.024 0.009-0.048 0.014-0.072 0.012-0.054 0.024-0.107 0.038-0.16 0.003-0.012 0.006-0.025 0.009-0.038 0.017-0.065 0.036-0.129 0.056-0.193 0.006-0.020 0.013-0.039 0.020-0.058 0.015-0.044 0.030-0.089 0.046-0.132 0.009-0.025 0.019-0.048 0.028-0.072 0.015-0.038 0.031-0.077 0.046-0.114 0.011-0.026 0.022-0.051 0.034-0.076 0.016-0.036 0.032-0.071 0.050-0.106 0.012-0.026 0.025-0.051 0.038-0.076 0.017-0.034 0.035-0.068 0.054-0.102 0.014-0.025 0.028-0.049 0.042-0.074 0.020-0.034 0.039-0.067 0.059-0.1 0.014-0.024 0.029-0.048 0.044-0.071 0.021-0.034 0.043-0.067 0.066-0.1 0.014-0.023 0.029-0.045 0.044-0.066 0.025-0.035 0.051-0.070 0.076-0.104 0.014-0.019 0.028-0.038 0.042-0.057 0.035-0.044 0.070-0.088 0.106-0.132 0.006-0.008 0.012-0.016 0.018-0.023 0.043-0.051 0.087-0.1 0.132-0.148 0.014-0.015 0.029-0.030 0.043-0.045 0.032-0.033 0.063-0.066 0.096-0.098 0.018-0.018 0.037-0.035 0.056-0.053 0.029-0.028 0.059-0.056 0.089-0.083 0.020-0.018 0.041-0.036 0.062-0.055 0.029-0.025 0.059-0.051 0.090-0.075 0.022-0.018 0.044-0.036 0.066-0.053 0.030-0.024 0.061-0.047 0.092-0.071 0.022-0.017 0.046-0.034 0.069-0.050 0.032-0.023 0.064-0.045 0.096-0.067 0.024-0.016 0.047-0.031 0.070-0.047 0.034-0.023 0.069-0.044 0.103-0.065 0.023-0.014 0.046-0.028 0.069-0.042 0.038-0.023 0.077-0.044 0.116-0.065 0.020-0.011 0.040-0.023 0.061-0.033 0.055-0.029 0.11-0.057 0.167-0.083 0.005-0.002 0.009-0.005 0.014-0.007 0.061-0.029 0.123-0.056 0.186-0.082 0.020-0.008 0.041-0.016 0.061-0.024 0.043-0.017 0.086-0.034 0.13-0.050 0.025-0.009 0.050-0.017 0.076-0.026 0.039-0.014 0.079-0.027 0.119-0.039 0.027-0.008 0.055-0.016 0.082-0.024 0.039-0.011 0.078-0.023 0.118-0.033 0.028-0.007 0.056-0.015 0.085-0.021 0.039-0.009 0.078-0.018 0.118-0.026 0.029-0.006 0.058-0.012 0.087-0.018 0.040-0.007 0.081-0.015 0.122-0.021 0.029-0.005 0.057-0.010 0.086-0.014 0.042-0.006 0.085-0.011 0.128-0.016 0.027-0.003 0.055-0.007 0.082-0.009 0.047-0.004 0.095-0.008 0.143-0.011 0.024-0.002 0.047-0.004 0.070-0.005 0.072-0.004 0.144-0.006 0.216-0.006s0.144 0.002 0.216 0.006c0.024 0.001 0.047 0.003 0.070 0.005 0.048 0.003 0.096 0.006 0.143 0.011 0.028 0.002 0.055 0.006 0.082 0.009 0.043 0.005 0.086 0.010 0.128 0.016 0.029 0.004 0.058 0.008 0.086 0.014 0.041 0.006 0.081 0.014 0.122 0.021 0.029 0.006 0.058 0.012 0.087 0.018 0.040 0.008 0.079 0.017 0.118 0.026 0.029 0.007 0.057 0.014 0.085 0.021 0.039 0.010 0.078 0.021 0.118 0.033 0.027 0.008 0.055 0.016 0.082 0.024 0.040 0.012 0.080 0.026 0.119 0.039 0.025 0.009 0.051 0.017 0.076 0.026 0.044 0.016 0.086 0.033 0.13 0.050 0.020 0.008 0.041 0.016 0.061 0.024 0.062 0.026 0.124 0.053 0.186 0.082 0.005 0.002 0.010 0.005 0.014 0.007 0.056 0.026 0.112 0.054 0.167 0.083 0.021 0.011 0.040 0.022 0.060 0.033 0.039 0.021 0.078 0.043 0.116 0.065 0.023 0.014 0.046 0.028 0.069 0.042 0.035 0.021 0.069 0.042 0.103 0.065 0.023 0.015 0.046 0.031 0.070 0.047 0.032 0.022 0.065 0.044 0.096 0.067 0.023 0.016 0.046 0.033 0.069 0.050 0.031 0.024 0.062 0.047 0.092 0.071 0.023 0.017 0.044 0.035 0.066 0.053 0.031 0.025 0.061 0.050 0.090 0.076 0.021 0.018 0.042 0.036 0.062 0.054 0.030 0.028 0.060 0.056 0.090 0.084 0.018 0.017 0.037 0.035 0.056 0.053 0.032 0.032 0.065 0.065 0.096 0.098 0.014 0.015 0.029 0.029 0.043 0.044 0.045 0.048 0.089 0.098 0.132 0.148 0.006 0.007 0.012 0.015 0.017 0.021 0.036 0.044 0.073 0.088 0.107 0.134 0.014 0.018 0.028 0.037 0.042 0.055 0.026 0.035 0.052 0.070 0.077 0.105 0.015 0.021 0.029 0.044 0.044 0.066 0.023 0.033 0.044 0.066 0.066 0.1 0.015 0.024 0.029 0.047 0.044 0.071 0.020 0.033 0.040 0.067 0.059 0.101 0.014 0.025 0.028 0.049 0.041 0.074 0.019 0.034 0.037 0.069 0.055 0.103 0.013 0.025 0.025 0.050 0.037 0.075 0.017 0.036 0.034 0.072 0.050 0.108 0.012 0.025 0.023 0.049 0.033 0.075 0.017 0.038 0.032 0.077 0.047 0.116 0.009 0.024 0.018 0.047 0.028 0.071 0.017 0.045 0.032 0.090 0.047 0.135 0.006 0.019 0.013 0.037 0.019 0.055 0.020 0.064 0.039 0.129 0.057 0.195 0.002 0.010 0.005 0.021 0.007 0.031 0.014 0.056 0.028 0.111 0.040 0.168 0.005 0.023 0.009 0.046 0.013 0.069 0.007 0.035 0.014 0.070 0.021 0.106h12.453v-20.893c0-0.388 0.323-0.703 0.721-0.703h10.419c0.018 0 0.073 0 0.107-0.062s0.004-0.106-0.006-0.12l-2.255-3.3c-0.218-0.319-0.583-0.51-0.977-0.51h-18.817c-0.105 0-0.204 0.040-0.278 0.112l-1.192 1.163c-0.346 0.338-0.807 0.524-1.297 0.524h-12.409c-0.643 0-1.167 0.511-1.167 1.138v18.039z"></path>
<path d="M20.116 7.198h4.558c0.921 0 1.67 0.731 1.67 1.629v15.046c0 0.388-0.323 0.703-0.721 0.703h-6.456c-0.398 0-0.721-0.315-0.721-0.703v-15.046c-0.001-0.899 0.748-1.629 1.669-1.629zM19.887 23.17h5.015v-8.267h-5.015v8.267zM19.887 13.497h5.015v-4.669c0-0.123-0.103-0.223-0.229-0.223h-4.558c-0.126 0-0.229 0.1-0.229 0.223l0.001 4.669z"></path>
</svg>
<svg id="icon-Kitchen" width="32" height="32" viewBox="0 0 32 32" x="384" y="0">
<path fill="none" stroke="#000" stroke-width="2.4" stroke-miterlimit="4" stroke-linecap="round" stroke-linejoin="round" d="M25.333 20v-16c-6.421 6.125-6.697 11.092-6.667 16h6.667zM25.333 20v8h-1.333v-4M10.667 5.333v22.667M6.667 5.333v4c0 1.061 0.421 2.078 1.172 2.828s1.768 1.172 2.828 1.172c1.061 0 2.078-0.421 2.828-1.172s1.172-1.768 1.172-2.828v-4"></path>
</svg>
<svg id="icon-Like" width="32" height="32" viewBox="0 0 32 32" x="432" y="0">
<path fill="none" stroke="#000" stroke-width="3.0667" stroke-miterlimit="4" stroke-linecap="round" stroke-linejoin="round" d="M27.787 6.147c-0.681-0.681-1.49-1.222-2.379-1.591s-1.844-0.559-2.807-0.559-1.917 0.19-2.807 0.559c-0.89 0.369-1.699 0.909-2.38 1.591l-1.413 1.413-1.413-1.413c-1.376-1.376-3.241-2.148-5.187-2.148s-3.811 0.773-5.187 2.148c-1.376 1.376-2.148 3.241-2.148 5.187s0.773 3.811 2.148 5.187l11.787 11.787 11.787-11.787c0.681-0.681 1.222-1.49 1.591-2.38s0.559-1.844 0.559-2.807-0.19-1.917-0.559-2.807c-0.369-0.89-0.909-1.699-1.591-2.38z"></path>
</svg>
<svg id="icon-Route" width="32" height="32" viewBox="0 0 32 32" x="480" y="0">
<path d="M6.667 4c-1.473 0-2.667 1.194-2.667 2.667s1.194 2.667 2.667 2.667c1.473 0 2.667-1.194 2.667-2.667s-1.194-2.667-2.667-2.667zM1.333 6.667c0-2.946 2.388-5.333 5.333-5.333s5.333 2.388 5.333 5.333c0 2.946-2.388 5.333-5.333 5.333s-5.333-2.388-5.333-5.333z"></path>
<path d="M25.333 22.667c-1.473 0-2.667 1.194-2.667 2.667s1.194 2.667 2.667 2.667c1.473 0 2.667-1.194 2.667-2.667s-1.194-2.667-2.667-2.667zM20 25.333c0-2.945 2.388-5.333 5.333-5.333s5.333 2.388 5.333 5.333c0 2.946-2.388 5.333-5.333 5.333s-5.333-2.388-5.333-5.333z"></path>
<path d="M13.333 6.667c0-0.736 0.597-1.333 1.333-1.333h8.4c4.13 0 5.62 5.404 1.987 7.429l-15.473 8.804c-1.16 0.644-0.782 2.434 0.686 2.434h7.067c0.736 0 1.333 0.597 1.333 1.333s-0.597 1.333-1.333 1.333h-7.067c-4.13 0-5.619-5.404-1.987-7.429l15.473-8.804c1.16-0.644 0.782-2.434-0.686-2.434h-8.4c-0.736 0-1.333-0.597-1.333-1.333z"></path>
</svg>
<svg id="icon-Transmision" width="32" height="32" viewBox="0 0 32 32" x="528" y="0">
<path fill="none" stroke="#000" stroke-width="2.4" stroke-miterlimit="4" stroke-linecap="round" stroke-linejoin="round" d="M22.667 14.667h2c0.53 0 1.039-0.211 1.414-0.586s0.586-0.884 0.586-1.414-0.211-1.039-0.586-1.414c-0.375-0.375-0.884-0.586-1.414-0.586h-2v6.667M22.667 22.667v5.333h1.333c0.707 0 1.386-0.281 1.886-0.781s0.781-1.178 0.781-1.886c0-0.707-0.281-1.385-0.781-1.886s-1.178-0.781-1.886-0.781h-1.333zM4 6.667c0 0.707 0.281 1.386 0.781 1.886s1.178 0.781 1.886 0.781c0.707 0 1.386-0.281 1.886-0.781s0.781-1.178 0.781-1.886c0-0.707-0.281-1.386-0.781-1.886s-1.178-0.781-1.886-0.781c-0.707 0-1.386 0.281-1.886 0.781s-0.781 1.178-0.781 1.886z"></path>
<path fill="none" stroke="#000" stroke-width="2.4" stroke-miterlimit="4" stroke-linecap="round" stroke-linejoin="round" d="M6.667 9.333v4c0 0.354 0.14 0.693 0.391 0.943s0.589 0.391 0.943 0.391h4M12 14.667v9.333c0 0.354 0.14 0.693 0.391 0.943s0.589 0.39 0.943 0.39h4M12 14.667h5.333"></path>
</svg>
<svg id="icon-TV" width="32" height="32" viewBox="0 0 32 32" x="576" y="0">
<path fill="none" stroke="#000" stroke-width="1.8" stroke-miterlimit="4" stroke-linecap="round" stroke-linejoin="round" d="M24 26h-16c-2.216 0-4-1.784-4-4v-10c0-2.216 1.784-4 4-4h16c2.216 0 4 1.784 4 4v10c0 2.216-1.784 4-4 4z"></path>
<path fill="none" stroke="#000" stroke-width="1.8" stroke-miterlimit="4" stroke-linecap="round" stroke-linejoin="round" d="M12 30h8"></path>
<path fill="none" stroke="#000" stroke-width="1.8" stroke-miterlimit="4" stroke-linecap="round" stroke-linejoin="round" d="M16 8l6-6"></path>
<path fill="none" stroke="#000" stroke-width="1.8" stroke-miterlimit="4" stroke-linecap="round" stroke-linejoin="round" d="M16 8l-6-6"></path>
</svg>
<svg id="icon-Users" width="32" height="32" viewBox="0 0 32 32" x="624" y="0">
<path d="M9.067 24.133h-4.4c-0.267 0-0.4-0.133-0.533-0.267s-0.267-0.4-0.133-0.667c0.8-2.267 2.8-3.6 5.067-3.6 2.8 0 5.067-2.4 5.067-5.2s-2.267-5.467-5.067-5.467c-2.8 0-5.067 2.4-5.067 5.333 0 1.333 0.533 2.667 1.333 3.6-1.733 0.933-3.067 2.4-3.867 4.4-0.267 0.933-0.133 2.133 0.533 3.067s1.6 1.467 2.667 1.467h4.4c0.8 0 1.333-0.533 1.333-1.333s-0.533-1.333-1.333-1.333zM6.667 14.267c0-1.467 1.067-2.533 2.4-2.533s2.4 1.2 2.4 2.533c0 1.467-1.067 2.533-2.4 2.533s-2.4-1.2-2.4-2.533z"></path>
<path d="M30.533 21.467c-0.933-2.533-2.8-4.4-4.933-5.467 1.2-1.067 1.867-2.667 1.867-4.533 0-3.467-2.667-6.267-5.867-6.267s-5.867 2.8-5.867 6.267c0 1.733 0.667 3.333 1.867 4.533-2.133 1.067-4 2.933-4.933 5.467-0.667 1.2-0.4 2.533 0.267 3.6s1.867 1.6 3.067 1.6h11.067c1.2 0 2.4-0.667 3.067-1.6 0.8-1.067 0.933-2.4 0.4-3.6zM18.267 11.6c0-2 1.467-3.6 3.2-3.6s3.2 1.6 3.2 3.6-1.467 3.6-3.2 3.6c-1.733 0-3.2-1.733-3.2-3.6zM27.867 23.6c-0.133 0.133-0.4 0.533-0.8 0.533h-11.067c-0.533 0-0.8-0.4-0.8-0.533-0.133-0.133-0.4-0.667-0.133-1.2 1.067-2.8 3.733-4.667 6.533-4.667s5.467 1.867 6.533 4.667c0.133 0.533-0.133 1.067-0.267 1.2z"></path>
</svg>
<svg id="icon-Van" width="46" height="32" viewBox="0 0 46 32" x="672" y="0">
<path d="M2.608 1.8h12.409c0.105 0 0.203-0.040 0.278-0.112l1.192-1.163c0.346-0.338 0.807-0.524 1.297-0.524h18.817c0.876 0 1.69 0.425 2.176 1.136l2.255 3.3c0.32 0.468 0.349 1.067 0.077 1.564s-0.8 0.805-1.377 0.805h-9.698v0.956h4.967c1.317 0 2.501 0.763 3.018 1.945l2.908 6.65 2.548 0.994c1.36 0.531 2.24 1.797 2.24 3.227v6.158c0 0.918-0.766 1.666-1.708 1.666h-2.964c-0.345 2.039-2.164 3.599-4.35 3.599s-4.005-1.561-4.35-3.599h-16.203c-0.345 2.039-2.164 3.599-4.35 3.599s-4.005-1.561-4.35-3.599h-5.921c-0.837 0-1.518-0.664-1.518-1.481v-22.576c0-1.403 1.17-2.544 2.608-2.544zM36.692 30.594c1.637 0 2.969-1.299 2.969-2.896s-1.332-2.896-2.969-2.896c-1.637 0-2.969 1.299-2.969 2.896s1.332 2.896 2.969 2.896zM30.034 26.995h2.307c0.006-0.035 0.013-0.070 0.020-0.105 0.005-0.024 0.009-0.047 0.014-0.071 0.012-0.055 0.025-0.11 0.039-0.164 0.003-0.011 0.005-0.023 0.009-0.034 0.017-0.066 0.036-0.13 0.057-0.195 0.006-0.019 0.013-0.037 0.019-0.056 0.015-0.045 0.031-0.090 0.047-0.134 0.009-0.024 0.018-0.047 0.028-0.071 0.015-0.039 0.030-0.078 0.047-0.116 0.010-0.025 0.022-0.050 0.033-0.075 0.016-0.037 0.032-0.072 0.050-0.108 0.013-0.025 0.025-0.050 0.038-0.075 0.017-0.034 0.036-0.069 0.054-0.103 0.013-0.025 0.027-0.049 0.041-0.074 0.019-0.034 0.039-0.067 0.059-0.101 0.014-0.024 0.029-0.047 0.043-0.071 0.022-0.034 0.044-0.067 0.066-0.101 0.015-0.022 0.029-0.044 0.044-0.065 0.025-0.035 0.051-0.070 0.077-0.105 0.013-0.018 0.026-0.037 0.040-0.055 0.036-0.046 0.072-0.090 0.109-0.135 0.005-0.007 0.010-0.014 0.016-0.020 0.043-0.051 0.087-0.1 0.132-0.148 0.014-0.015 0.028-0.029 0.043-0.044 0.032-0.033 0.063-0.066 0.096-0.099 0.018-0.018 0.038-0.035 0.056-0.053 0.029-0.028 0.059-0.056 0.090-0.084 0.020-0.018 0.041-0.036 0.062-0.054 0.030-0.026 0.060-0.051 0.090-0.077l0.066-0.052c0.031-0.024 0.062-0.048 0.093-0.071 0.022-0.017 0.045-0.034 0.069-0.050 0.032-0.023 0.064-0.045 0.097-0.068 0.023-0.015 0.046-0.031 0.069-0.046 0.034-0.023 0.069-0.044 0.104-0.065 0.022-0.014 0.045-0.028 0.068-0.041 0.038-0.023 0.077-0.044 0.116-0.065 0.020-0.011 0.040-0.023 0.059-0.033 0.056-0.029 0.112-0.057 0.168-0.084 0.005-0.002 0.009-0.004 0.013-0.006 0.061-0.029 0.123-0.056 0.186-0.082 0.020-0.008 0.041-0.016 0.061-0.024 0.043-0.017 0.086-0.034 0.13-0.050 0.025-0.009 0.050-0.017 0.075-0.026 0.040-0.014 0.080-0.027 0.12-0.039 0.027-0.008 0.054-0.016 0.082-0.024 0.039-0.011 0.078-0.023 0.118-0.033 0.028-0.007 0.056-0.015 0.085-0.021 0.039-0.009 0.078-0.018 0.118-0.026 0.029-0.006 0.058-0.012 0.087-0.018 0.040-0.007 0.081-0.015 0.122-0.021 0.029-0.005 0.057-0.010 0.086-0.014 0.042-0.006 0.085-0.011 0.128-0.016 0.027-0.003 0.055-0.007 0.082-0.009 0.047-0.004 0.095-0.008 0.143-0.011 0.024-0.002 0.047-0.004 0.070-0.005 0.072-0.004 0.144-0.006 0.216-0.006s0.144 0.002 0.216 0.006c0.024 0.001 0.047 0.003 0.070 0.005 0.048 0.003 0.096 0.006 0.143 0.011 0.028 0.002 0.055 0.006 0.082 0.009 0.043 0.005 0.086 0.010 0.128 0.016 0.029 0.004 0.058 0.008 0.087 0.014 0.041 0.006 0.081 0.014 0.122 0.021 0.029 0.006 0.058 0.012 0.087 0.018 0.040 0.008 0.079 0.017 0.118 0.026 0.029 0.007 0.057 0.014 0.085 0.021 0.039 0.010 0.078 0.021 0.118 0.033 0.028 0.008 0.055 0.016 0.082 0.024 0.040 0.012 0.080 0.026 0.12 0.039 0.025 0.009 0.050 0.017 0.075 0.026 0.044 0.016 0.087 0.033 0.13 0.050 0.020 0.008 0.041 0.016 0.061 0.024 0.062 0.026 0.125 0.053 0.186 0.082 0.005 0.002 0.009 0.005 0.013 0.006 0.057 0.027 0.112 0.055 0.168 0.084 0.020 0.011 0.039 0.022 0.059 0.033 0.039 0.021 0.078 0.043 0.116 0.065 0.023 0.014 0.045 0.028 0.068 0.041 0.035 0.021 0.070 0.043 0.104 0.065 0.023 0.015 0.046 0.031 0.069 0.046 0.033 0.023 0.065 0.044 0.097 0.068 0.023 0.016 0.046 0.033 0.069 0.050 0.031 0.024 0.062 0.047 0.093 0.071l0.066 0.052c0.031 0.025 0.061 0.051 0.090 0.077 0.021 0.018 0.041 0.036 0.062 0.054 0.031 0.028 0.060 0.056 0.090 0.084 0.018 0.017 0.037 0.035 0.056 0.053 0.033 0.033 0.065 0.066 0.096 0.099 0.014 0.015 0.029 0.029 0.043 0.044 0.045 0.048 0.089 0.098 0.132 0.148 0.006 0.007 0.011 0.014 0.016 0.020 0.037 0.044 0.073 0.089 0.109 0.135 0.014 0.018 0.027 0.037 0.040 0.055 0.026 0.035 0.052 0.070 0.077 0.105 0.015 0.021 0.029 0.043 0.044 0.065 0.022 0.034 0.044 0.067 0.066 0.101 0.014 0.024 0.029 0.047 0.043 0.071 0.020 0.033 0.040 0.067 0.059 0.101 0.014 0.025 0.028 0.049 0.041 0.074 0.018 0.034 0.037 0.069 0.054 0.103 0.013 0.025 0.025 0.050 0.038 0.075 0.017 0.036 0.033 0.071 0.050 0.108 0.011 0.025 0.023 0.049 0.033 0.075 0.017 0.038 0.032 0.077 0.047 0.116 0.010 0.024 0.019 0.047 0.028 0.071 0.016 0.044 0.032 0.089 0.047 0.134 0.006 0.019 0.013 0.038 0.019 0.056 0.020 0.064 0.039 0.129 0.056 0.195 0.003 0.011 0.006 0.023 0.009 0.034 0.014 0.055 0.027 0.109 0.039 0.164 0.005 0.024 0.009 0.047 0.014 0.071 0.007 0.035 0.014 0.069 0.020 0.105h2.963c0.147 0 0.266-0.116 0.266-0.26v-2.946h-1.124v-1.406h1.124v-1.806c0-0.851-0.523-1.606-1.333-1.922l-2.697-1.052h-10.209v9.392zM30.034 16.197h9.257l-2.598-5.939c-0.29-0.662-0.954-1.090-1.692-1.090h-4.967v7.030zM11.789 30.594c1.637 0 2.969-1.299 2.969-2.896s-1.332-2.896-2.969-2.896c-0.051 0-0.102 0.001-0.153 0.004-1.364 0.067-2.488 1.038-2.756 2.309-0.010 0.047-0.019 0.095-0.027 0.143-0.015 0.096-0.025 0.193-0.030 0.291-0.003 0.049-0.004 0.099-0.004 0.149 0 1.597 1.332 2.896 2.969 2.896zM1.441 22.383h1.124v1.406h-1.124v3.131c0 0.041 0.035 0.075 0.077 0.075h5.92c0.006-0.035 0.013-0.069 0.020-0.104 0.005-0.024 0.009-0.048 0.014-0.072 0.012-0.054 0.024-0.107 0.038-0.16 0.003-0.012 0.006-0.025 0.009-0.038 0.017-0.065 0.036-0.129 0.056-0.193 0.006-0.020 0.013-0.039 0.020-0.058 0.015-0.044 0.030-0.089 0.046-0.132 0.009-0.025 0.019-0.048 0.028-0.072 0.015-0.038 0.031-0.077 0.046-0.114 0.011-0.026 0.022-0.051 0.034-0.076 0.016-0.036 0.032-0.071 0.050-0.106 0.012-0.026 0.025-0.051 0.038-0.076 0.017-0.034 0.035-0.068 0.054-0.102 0.014-0.025 0.028-0.049 0.042-0.074 0.020-0.034 0.039-0.067 0.059-0.1 0.014-0.024 0.029-0.048 0.044-0.071 0.021-0.034 0.043-0.067 0.066-0.1 0.014-0.023 0.029-0.045 0.044-0.066 0.025-0.035 0.051-0.070 0.076-0.104 0.014-0.019 0.028-0.038 0.042-0.057 0.035-0.044 0.070-0.088 0.106-0.132 0.006-0.008 0.012-0.016 0.018-0.023 0.043-0.051 0.087-0.1 0.132-0.148 0.014-0.015 0.029-0.030 0.043-0.045 0.032-0.033 0.063-0.066 0.096-0.098 0.018-0.018 0.037-0.035 0.056-0.053 0.029-0.028 0.059-0.056 0.089-0.083 0.020-0.018 0.041-0.036 0.062-0.055 0.029-0.025 0.059-0.051 0.090-0.075 0.022-0.018 0.044-0.036 0.066-0.053 0.030-0.024 0.061-0.047 0.092-0.071 0.022-0.017 0.046-0.034 0.069-0.050 0.032-0.023 0.064-0.045 0.096-0.067 0.024-0.016 0.047-0.031 0.070-0.047 0.034-0.023 0.069-0.044 0.103-0.065 0.023-0.014 0.046-0.028 0.069-0.042 0.038-0.023 0.077-0.044 0.116-0.065 0.020-0.011 0.040-0.023 0.061-0.033 0.055-0.029 0.11-0.057 0.167-0.083 0.005-0.002 0.009-0.005 0.014-0.007 0.061-0.029 0.123-0.056 0.186-0.082 0.020-0.008 0.041-0.016 0.061-0.024 0.043-0.017 0.086-0.034 0.13-0.050 0.025-0.009 0.050-0.017 0.076-0.026 0.039-0.014 0.079-0.027 0.119-0.039 0.027-0.008 0.055-0.016 0.082-0.024 0.039-0.011 0.078-0.023 0.118-0.033 0.028-0.007 0.056-0.015 0.085-0.021 0.039-0.009 0.078-0.018 0.118-0.026 0.029-0.006 0.058-0.012 0.087-0.018 0.040-0.007 0.081-0.015 0.122-0.021 0.029-0.005 0.057-0.010 0.086-0.014 0.042-0.006 0.085-0.011 0.128-0.016 0.027-0.003 0.055-0.007 0.082-0.009 0.047-0.004 0.095-0.008 0.143-0.011 0.024-0.002 0.047-0.004 0.070-0.005 0.072-0.004 0.144-0.006 0.216-0.006s0.144 0.002 0.216 0.006c0.024 0.001 0.047 0.003 0.070 0.005 0.048 0.003 0.096 0.006 0.143 0.011 0.028 0.002 0.055 0.006 0.082 0.009 0.043 0.005 0.086 0.010 0.128 0.016 0.029 0.004 0.058 0.008 0.086 0.014 0.041 0.006 0.081 0.014 0.122 0.021 0.029 0.006 0.058 0.012 0.087 0.018 0.040 0.008 0.079 0.017 0.118 0.026 0.029 0.007 0.057 0.014 0.085 0.021 0.039 0.010 0.078 0.021 0.118 0.033 0.027 0.008 0.055 0.016 0.082 0.024 0.040 0.012 0.080 0.026 0.119 0.039 0.025 0.009 0.051 0.017 0.076 0.026 0.044 0.016 0.086 0.033 0.13 0.050 0.020 0.008 0.041 0.016 0.061 0.024 0.062 0.026 0.124 0.053 0.186 0.082 0.005 0.002 0.010 0.005 0.014 0.007 0.056 0.026 0.112 0.054 0.167 0.083 0.021 0.011 0.040 0.022 0.060 0.033 0.039 0.021 0.078 0.043 0.116 0.065 0.023 0.014 0.046 0.028 0.069 0.042 0.035 0.021 0.069 0.042 0.103 0.065 0.023 0.015 0.046 0.031 0.070 0.047 0.032 0.022 0.065 0.044 0.096 0.067 0.023 0.016 0.046 0.033 0.069 0.050 0.031 0.024 0.062 0.047 0.092 0.071 0.023 0.017 0.044 0.035 0.066 0.053 0.031 0.025 0.061 0.050 0.090 0.076 0.021 0.018 0.042 0.036 0.062 0.054 0.030 0.028 0.060 0.056 0.090 0.084 0.018 0.017 0.037 0.035 0.056 0.053 0.032 0.032 0.065 0.065 0.096 0.098 0.014 0.015 0.029 0.029 0.043 0.044 0.045 0.048 0.089 0.098 0.132 0.148 0.006 0.007 0.012 0.015 0.017 0.021 0.036 0.044 0.073 0.088 0.107 0.134 0.014 0.018 0.028 0.037 0.042 0.055 0.026 0.035 0.052 0.070 0.077 0.105 0.015 0.021 0.029 0.044 0.044 0.066 0.023 0.033 0.044 0.066 0.066 0.1 0.015 0.024 0.029 0.047 0.044 0.071 0.020 0.033 0.040 0.067 0.059 0.101 0.014 0.025 0.028 0.049 0.041 0.074 0.019 0.034 0.037 0.069 0.055 0.103 0.013 0.025 0.025 0.050 0.037 0.075 0.017 0.036 0.034 0.072 0.050 0.108 0.012 0.025 0.023 0.049 0.033 0.075 0.017 0.038 0.032 0.077 0.047 0.116 0.009 0.024 0.018 0.047 0.028 0.071 0.017 0.045 0.032 0.090 0.047 0.135 0.006 0.019 0.013 0.037 0.019 0.055 0.020 0.064 0.039 0.129 0.057 0.195 0.002 0.010 0.005 0.021 0.007 0.031 0.014 0.056 0.028 0.111 0.040 0.168 0.005 0.023 0.009 0.046 0.013 0.069 0.007 0.035 0.014 0.070 0.021 0.106h12.453v-20.893c0-0.388 0.323-0.703 0.721-0.703h10.419c0.018 0 0.073 0 0.107-0.062s0.004-0.106-0.006-0.12l-2.255-3.3c-0.218-0.319-0.583-0.51-0.977-0.51h-18.817c-0.105 0-0.204 0.040-0.278 0.112l-1.192 1.163c-0.346 0.338-0.807 0.524-1.297 0.524h-12.409c-0.643 0-1.167 0.511-1.167 1.138v18.039z"></path>
<path d="M5.536 7.198h8.814c1.019 0 1.848 0.809 1.848 1.802v4.1c0 0.994-0.829 1.802-1.848 1.802h-8.815c-1.019 0-1.848-0.809-1.848-1.802v-4.1c0.001-0.994 0.83-1.802 1.848-1.802zM5.129 13.1c0 0.218 0.182 0.396 0.406 0.396h8.814c0.224 0 0.406-0.178 0.406-0.396v-4.1c0-0.218-0.182-0.396-0.406-0.396h-8.815c-0.224 0-0.406 0.178-0.406 0.396l0.001 4.1z"></path>
</svg>
<svg id="icon-WC" width="32" height="32" viewBox="0 0 32 32" x="0" y="48">
<path fill="none" stroke="#000" stroke-width="2" stroke-miterlimit="4" stroke-linecap="round" stroke-linejoin="round" d="M5.333 5.333l3.333 3.333M18 8.667c-1.242-1.217-2.914-1.895-4.653-1.886s-3.404 0.703-4.634 1.933-1.924 2.895-1.933 4.634c-0.009 1.739 0.669 3.411 1.886 4.653M20 6.667l-13.333 13.333M18.667 22.667v0.013M13.333 21.333v0.013M17.333 17.333v0.013M21.333 13.333v0.013M14.667 26.667v0.013M22.667 18.667v0.013M26.667 14.667v0.013"></path>
</svg>
</svg>
